<svg width="160" height="160" viewBox="0 0 160 160" fill="none" xmlns="http://www.w3.org/2000/svg">
<g id="clam">
<path id="Vector 1" d="M116.5 50.5C144.5 50.5 127.333 86.1667 116.5 102C98.1667 99.8333 64 91.7 64 92.5C41 72 51.5 63 56 60C49 38 62 39 66.5 38.5C71.5 3.99999 94 27.5 96.5 31C123 27.5 117.5 46.5 116.5 50.5Z" fill="url(#paint0_linear_1_2)"/>
<ellipse id="Ellipse 1" cx="89.5" cy="80" rx="23.5" ry="30" transform="rotate(-9.48788 89.5 80)" fill="#B3EDFF"/>
<path id="Vector 3" d="M122 107.5C107.5 71 58 85.5 56 102.914L88.2105 138C95.5388 135.948 116 130.5 122 107.5Z" fill="#D1DDE1"/>
<circle id="Ellipse 2" cx="81.5" cy="81.5" r="20.5" fill="url(#paint1_radial_1_2)"/>
<path id="Vector 2" d="M100.5 118C128.1 114.8 120 102.5 117 98.5C124.5 103.5 123.5 109.5 123.5 112C111.5 148.5 80 141 71 141C38 141 18.625 109.5 20 104C26 80 43.5 107 47 108C52.5 87 62.5 97 64.5 97C85.5 113 90 118 100.5 118Z" fill="url(#paint2_linear_1_2)"/>
<circle id="Ellipse 3" cx="74" cy="71" r="4" fill="white"/>
</g>
<defs>
<linearGradient id="paint0_linear_1_2" x1="75" y1="20" x2="90.6915" y2="102" gradientUnits="userSpaceOnUse">
<stop stop-color="#A6EAFF"/>
<stop offset="1" stop-color="#82A5B1"/>
</linearGradient>
<radialGradient id="paint1_radial_1_2" cx="0" cy="0" r="1" gradientUnits="userSpaceOnUse" gradientTransform="translate(76.5 78) rotate(78.2317) scale(24.5153)">
<stop stop-color="#9DE8FF"/>
<stop offset="0.65113" stop-color="#DDF7FF"/>
<stop offset="1" stop-color="white"/>
</radialGradient>
<linearGradient id="paint2_linear_1_2" x1="71.7379" y1="94.0881" x2="71.7379" y2="141.636" gradientUnits="userSpaceOnUse">
<stop stop-color="#D3F4FF"/>
<stop offset="1" stop-color="#507885"/>
</linearGradient>
</defs>
</svg>
