<svg width="270" height="270" viewBox="0 0 270 270" fill="none" xmlns="http://www.w3.org/2000/svg">
<g id="coral" clip-path="url(#clip0_1_2)">
<path id="coral-base" d="M280 160.5C4.79999 151.3 0.333326 234.333 32.5 277L277 291C278 258.167 280 186.1 280 160.5Z" fill="url(#paint0_linear_1_2)"/>
<path id="details" d="M208.293 174.46C208.826 174.46 208.893 174.437 209.108 174.868M207.071 180.977C206.698 181.309 206.465 181.376 206.257 181.792M192.001 114.18L191.594 114.588M193.223 117.439H193.631M222.956 132.916L224.178 131.694M228.251 126.399C228.251 126.932 228.228 126.998 228.658 127.214M241.285 111.329H243.321M245.357 110.515H244.95M216.847 81.5964H216.439M216.032 85.6694V85.2621M218.883 80.7818H218.476M218.068 84.4475V84.0402M262.057 60.4169V61.2315M263.279 61.6388V62.4534M249.838 82.0037V82.411M246.579 163.463C246.199 163.421 246.068 163.258 245.765 163.056M248.616 163.056V162.649M248.209 184.236V183.828M248.616 186.679V186.272M263.279 128.436V128.028M264.5 124.363C264.039 124.247 264.188 123.929 264.093 123.548M253.503 86.484V87.2986" stroke="white" stroke-linecap="round"/>
<path id="curvy-coral" d="M59 192.5C39.5 160.5 2.66662 244.667 6.99996 277.5C96.3333 302.167 258.2 333.4 253 281C246.5 215.5 222 217.5 206 227C177 254.5 186 212.774 173.5 209.5C152.5 204 135 234.76 125.5 215C113 189 103.19 193.5 93.5 201.5C50.5 237 69.7771 210.186 59 192.5Z" fill="#0B1132"/>
<path id="curly-coral" d="M247.394 280.358C246.185 277.638 246.44 273.492 245.968 270.56C244.944 264.185 243.019 257.659 240.289 251.802C235.712 241.985 231.297 231.556 223.454 223.834C218.102 218.565 210.348 214.288 202.682 213.968C195.956 213.688 189.061 213.87 183.244 210.076C181.822 209.148 176.044 201.109 180.393 200.143C181.831 199.823 183.274 199.306 184.761 199.306C186.498 199.306 187.59 200.539 189.173 200.935C194.633 202.3 205.76 209.618 208.203 200.12C210.125 192.644 203.513 185.282 202.274 178.126C201.588 174.163 201.227 162.567 206.46 161.404C212.292 160.108 213.588 165.94 213.588 170.795C213.588 173.553 213.762 177.013 214.493 179.665C215.416 183.009 216.137 187.599 218.679 190.141C225.229 196.691 228.658 183.932 228.658 179.122C228.658 171.922 228.596 164.512 225.807 157.739C222.704 150.202 220.984 141.895 216.439 134.952C213.555 130.546 209.265 125.794 203.904 124.453C200.53 123.61 197.343 121.708 193.947 121.014C190.783 120.367 188.863 119.899 187.114 117.122C185.36 114.336 188.569 111.43 190.961 110.56C195.15 109.036 198.893 111.915 202.569 113.569C205.971 115.101 208.702 117.86 211.936 119.679C214.578 121.165 217.839 123.965 220.105 125.992C222.398 128.043 225.611 126.092 226.803 123.774C229.23 119.056 232.02 115.706 235.786 111.94C239.225 108.502 243.567 106.034 248.412 106.034C250.012 106.034 251.011 106.781 251.06 108.478C251.132 111.025 249.589 112.046 247.892 113.682C241.114 120.218 225.845 128.623 231.102 140.451C232.308 143.165 234.106 145.487 234.971 148.371C235.848 151.292 235.99 153.934 235.99 156.969C235.99 159.962 236.397 162.913 236.397 165.952C236.397 168.523 235.354 174.104 236.487 176.497C237.532 178.702 240.559 178.941 242.687 178.941C246.614 178.941 250.559 179.145 253.413 182.109C255.398 184.17 255.03 186.889 253.096 188.716C250.482 191.185 245.168 189.53 242.099 189.53C240.823 189.53 237.322 188.137 236.397 189.757C235.348 191.591 234.36 193.854 234.36 195.957C234.36 198.181 233.546 200.325 233.546 202.564C233.546 204.191 234.523 206.595 235.175 208.063C236.227 210.43 237.577 212.297 239.022 214.398C240.134 216.017 241.645 217.285 242.823 218.856C244.366 220.913 245.424 223.363 246.987 225.373C249.424 228.506 250.096 232.68 251.671 236.143C252.597 238.181 253.788 240.672 253.911 242.887C254.127 246.783 256.586 250.773 257.146 254.698C257.736 258.828 258.75 263.027 259.93 267.008C260.507 268.957 260.109 271.597 260.925 273.434C261.679 275.13 261.238 277.091 261.966 278.729C262.562 280.07 262.252 279.922 263.075 278.276C263.981 276.464 264.331 274.156 264.817 272.212C265.572 269.191 266.986 265.522 267.329 262.437C267.702 259.077 268.733 255.859 269.003 252.481C269.39 247.651 270.635 242.902 271.334 238.089C273.124 225.761 275.954 213.01 273.642 200.46C271.681 189.815 270.531 175.566 257.961 172.424C252.258 170.998 245.467 168.606 242.099 163.554C238.543 158.22 247.128 156.775 250.652 158.259C254.68 159.955 258.888 162.451 263.279 163.079C265.783 163.436 268.04 163.559 270.406 163.033C273 162.457 273.835 159.45 274.887 157.558C275.898 155.738 275.638 152.734 274.683 151.063C273.681 149.31 271.122 148.096 269.298 147.488C265.16 146.109 258.982 144.753 257.373 140.247C256.072 136.607 257.592 131.965 257.984 128.436C258.157 126.872 259.226 124.549 259.93 123.141C261.202 120.597 261.553 118.12 261.649 115.312C261.788 111.28 262.057 107.19 262.057 103.093C262.057 97.5814 259.927 93.8447 255.359 91.0095C249.251 87.2183 242.372 86.8913 235.424 86.8913C231.02 86.8913 226.854 87.1825 222.73 88.7467C220.544 89.5759 214.651 91.852 213.362 88.9051C211.87 85.4939 212.67 81.4586 214.312 78.338C215.928 75.269 218.119 76.1995 220.829 75.3964C223.787 74.52 227.963 74.265 231.102 74.265C234.71 74.265 238.304 75.0097 241.873 75.0796C244.698 75.135 248.026 76.3659 250.675 74.876C253.204 73.4533 253.22 69.7744 254.092 67.1599C255.235 63.7302 258.143 58.5253 261.966 57.6563C263.158 57.3855 264.675 56.9031 265.926 57.1811C267.102 57.4424 267.297 59.8961 267.759 60.7337C269.841 64.5082 267.42 68.0876 264.908 70.5993C262.113 73.3938 257.061 74.9135 259.613 79.3789C261.783 83.1772 266.042 83.9528 268.981 86.8913C271.578 89.4881 273.868 92.9004 273.868 96.6664C273.868 101.676 271.832 106.42 271.832 111.329C271.832 115.106 273.197 116.872 277.308 117.439C281.318 117.992 284.838 117.873 288.757 116.715C292.566 115.589 296.445 115.407 300.343 114.814C304.899 114.121 313.4 112.994 315.187 118.864C317.126 125.236 309.816 127.409 305.14 128.436C301.886 129.15 298.762 129.892 295.433 130.088C292.715 130.247 289.492 130.483 286.811 130.97C282.557 131.743 278.612 132.847 274.479 133.934C272.513 134.452 270.317 135.298 270.633 137.826C270.955 140.406 275.419 140.917 277.444 141.062C285.777 141.657 290.568 148.606 290.568 156.449C290.568 163.674 283.924 166.849 279.367 171.406C277.478 173.295 277.455 177.272 278.145 179.755C279.333 184.032 280.332 188.326 281.109 192.698C282.116 198.36 282.111 204.174 282.738 209.895C283.5 216.843 283.643 223.861 283.643 230.849C283.643 242.939 283.643 255.03 283.643 267.121C283.643 272.83 282.014 278.553 282.014 284.205C282.014 286.471 281.492 288.74 279.48 290.133C278.186 291.029 277.217 292.17 275.656 292.17C271.711 292.17 267.843 292.792 263.867 292.486C260.092 292.196 255.991 292.665 252.282 291.943C249.622 291.426 247.247 290.948 244.543 290.948C241.239 290.948 244.924 287.195 245.357 286.219C245.75 285.336 246.806 284.053 247.484 283.3C248.332 282.358 248.616 281.147 248.616 282.802" stroke="#CCB3E6" stroke-width="3" stroke-linecap="round"/>
</g>
<defs>
<linearGradient id="paint0_linear_1_2" x1="149" y1="95.5" x2="149" y2="271.5" gradientUnits="userSpaceOnUse">
<stop stop-color="#7C90FF" stop-opacity="0.4"/>
<stop offset="1" stop-color="#0B154E"/>
</linearGradient>
<clipPath id="clip0_1_2">
<rect width="270" height="270" fill="white"/>
</clipPath>
</defs>
</svg>
