<svg width="400" height="400" viewBox="0 0 400 400" fill="none" xmlns="http://www.w3.org/2000/svg">
<g id="couple">
<path id="Vector 1" d="M238.5 79.5118C235.3 72.3118 228.167 68.1784 225 67.0118H221C214.833 75.6784 202.2 94.1118 201 98.5118C185 101.712 171.667 98.1784 167 96.0118V91.5118H171.5L176.5 86.0118V79.5118C185.5 67.5118 175 61.5118 171.5 59.5118C156 53.5118 147 76.5118 144.5 81.5118C130 93.0118 122.5 93.0118 125.5 100.512C124.5 93.5118 135.5 92.0118 138 93.0118C126.5 97.5118 127 106.512 131.5 113.012C129.5 109.412 132.333 107.178 134 106.512L135.5 110.512L122.5 133.512L144 150.512L148.5 145.005L134 133.512C135.167 131.012 137.9 125.212 139.5 122.012C150.7 123.612 152.833 134.678 152.5 140.012C146.333 147.345 132.3 166.212 125.5 183.012C104 249.012 67 256.512 48 261.512C38.5 264.012 37 290.512 34 301.512C39 319.512 64 309.512 73 316.512C85.5 343.012 103 338.012 125.5 330.512C166 347.012 187.5 309.512 198.5 301.512C217.3 318.312 249.333 298.845 263 287.012C257.167 265.345 243.5 219.912 235.5 211.512C224.5 199.962 184.5 150.012 175 136.512C184.6 121.312 183.667 112.845 182 110.512L206.5 106.512L221 76.5118H225L228 79.5118L235.5 84.0118L238.5 96.0118L263 110.512L273.5 106.512L259.5 151.512C264.167 151.512 274.5 152.312 278.5 155.512C283.5 158.512 287.5 213.012 291 227.012C301 236.212 298.5 285.845 296 309.512L281.5 320.512L296 330.512L326.5 320.512C326.5 306.012 325.9 270.912 323.5 246.512C316.3 222.512 317.833 189.178 319.5 175.512L323.5 178.512L319.5 146.512L332.5 122.012L319.5 67.0118C315.667 66.0118 307.2 61.8118 304 53.0118C309 26.5118 299.5 26.5118 291 23.0118C278.6 22.6118 274.167 32.5118 273.5 37.5118L278.5 44.5118L273.5 49.5118L278.5 58.0118H287.5L291 64.0118L273.5 76.5118L278.5 79.5118L263 96.0118C257.5 92.3451 244.9 83.9118 238.5 79.5118Z" fill="url(#paint0_linear_1_2)"/>
</g>
<defs>
<linearGradient id="paint0_linear_1_2" x1="183" y1="-222.5" x2="188" y2="336" gradientUnits="userSpaceOnUse">
<stop stop-color="white"/>
<stop offset="0.503995" stop-color="#A3A3C1"/>
<stop offset="0.993282" stop-color="#42417D"/>
</linearGradient>
</defs>
</svg>
