<svg width="490" height="700" viewBox="0 0 490 700" fill="none" xmlns="http://www.w3.org/2000/svg">
<g id="header-mermaid">
<path id="tail" d="M144 265L133 298C133 299.167 134.3 300.8 139.5 298C251 250.5 246 218 257 199.5C287.5 92 198 66 144 52C215.6 75.2 235.5 118.667 236.5 137.5C235.333 136.5 231.7 133.6 226.5 130C235.5 159 227 176.5 220.5 188.5C202.1 127.3 174.833 104.667 163.5 101C167.333 106.833 175.3 121.7 176.5 134.5C133.7 79.3 89.6667 97.1667 73 113C81 112.333 99.3 112.5 108.5 118.5C39 131.5 44 183.5 45 199.5C58 128 114.5 153 125.5 155.5C171.1 166.3 156.833 233 144 265Z" fill="url(#paint0_linear_1_2)"/>
<path id="body" d="M342.5 606.5L313 562C248.5 562 248.5 528.5 246.5 522.5C241 466.5 213 464 207 461C118.5 449 105.5 394 101 381.5C86.2 337.9 122.5 294 142.5 277.5C143.167 277.667 146.1 280.3 152.5 289.5C99.5 333 135.5 365.5 144.5 372.5C163.5 391 213.5 389.5 241 392C286.5 390 278.5 431 274 441C267.6 457.4 276.667 469.167 282 473L295.5 468L330 545.5C338.5 560.5 356.2 591.3 359 594.5C367 595.5 374.5 603 381.5 606.5C390.5 613 409.167 624 417.5 627L431.5 616L440.5 609.5L451 606.5L442.5 613L435 618.5L426.5 629L433.5 627L440.5 625.5L435 630.5C431.167 632.5 422.9 636.6 420.5 637C408 632 389 627.5 381.5 625.5C365.5 623.1 348.833 611.833 342.5 606.5Z" fill="url(#paint1_linear_1_2)"/>
<path id="hair" fill-rule="evenodd" clip-rule="evenodd" d="M278.821 455.212C276.158 461.637 273.282 468.575 284 473.5C282.227 467.293 284.483 463.838 286.934 460.084C290.012 455.372 293.396 450.189 289.5 438.5C290.861 439.718 292.068 440.761 293.144 441.691C299.583 447.256 301.358 448.791 303.5 459.5C306.5 451.5 309.5 441.5 299 434C311.247 435.801 313.374 440.456 316.036 446.284C317.069 448.545 318.182 450.984 320 453.5C320 434.022 321.03 432.749 326.223 426.336C327.295 425.012 328.545 423.468 330 421.5C328.653 430.655 329.627 435.866 330.501 440.538C331.249 444.54 331.923 448.147 331 453.5C334 450.5 348.5 424.5 338 418.5C347.134 418.5 347.751 430.801 348.37 443.128C348.531 446.321 348.691 449.516 349 452.5C355.5 433 367 419 369 418.5C361 435 356.5 456 371.5 462C366 441.5 369.5 433.5 377 426C373.641 432.297 372.398 437.184 372.973 441.846C373.694 453.609 382.453 464.149 388.226 471.097C389.27 472.354 390.216 473.493 391 474.5C427 513.3 392 520 370 518C370 521.362 367.321 521.487 345.445 522.502C338.042 522.846 328.44 523.292 316 524C272 526.504 265.789 490.5 265.5 484C264.867 469.755 270.714 459.919 274.92 452.843C277.358 448.742 279.245 445.568 279 443C282.575 446.155 280.754 450.548 278.821 455.212Z" fill="url(#paint2_linear_1_2)"/>
<path id="face" d="M346.843 502.081C363.5 498.5 368.5 514.785 370.467 518.79C367.682 521.491 360.754 525.409 358.287 527.702C352.946 531.585 356.531 538.631 358.992 541.669C352.125 545.78 337.752 554.124 335.193 554.615C317.779 547.815 319.107 519.29 318.88 514.785C309.449 510.744 314.033 501.027 317.902 495.411C323.884 495.109 324.754 503.196 327.788 508.463C337.986 500.269 341.872 504.138 346.843 502.081Z" fill="#CECAE5"/>
<path id="right-arm" d="M250.5 575C297.7 517.4 311.588 520.5 316 528C321 536.5 294.833 560.833 277.5 573.5C289 585.5 312.7 610.4 315.5 614C319 644 335.5 654 338.5 656.5C327 655 324.5 648 322 644.5C322.5 649 328 658 329 661.5C325 658.3 318.333 645.833 315.5 640L317.5 648L314 663.5V648L312 643V648L301.5 658L307.5 646.5L305 618C287.667 605.833 252.5 580.2 250.5 575Z" fill="url(#paint3_linear_1_2)"/>
<path id="smile" d="M338.642 547.497C338.642 548.716 339.375 549.437 340.582 549.437" stroke="white" stroke-linecap="round"/>
<path id="eye" d="M347.202 524.538C346.247 524.644 343.845 527.349 344.882 527.349C346.458 527.349 348.005 525.602 348.005 524.136" stroke="white" stroke-width="3" stroke-linecap="round"/>
<path id="eyebrow" d="M354.029 520.522C350.041 516.733 347.398 516.666 342.383 518.514" stroke="white" stroke-linecap="round"/>
<path id="eyelash" d="M346.85 521.934V523.865" stroke="white" stroke-linecap="round"/>
</g>
<defs>
<linearGradient id="paint0_linear_1_2" x1="153.854" y1="52" x2="154" y2="250" gradientUnits="userSpaceOnUse">
<stop stop-color="#4EBFFF" stop-opacity="0.27"/>
<stop offset="1" stop-color="#99D2E5"/>
</linearGradient>
<linearGradient id="paint1_linear_1_2" x1="130.5" y1="298" x2="274.272" y2="637" gradientUnits="userSpaceOnUse">
<stop stop-color="#99D2E5"/>
<stop offset="1" stop-color="#D1DDE1" stop-opacity="0.41"/>
</linearGradient>
<linearGradient id="paint2_linear_1_2" x1="314" y1="419" x2="324.5" y2="471" gradientUnits="userSpaceOnUse">
<stop stop-color="#ACD2FF" stop-opacity="0.36"/>
<stop offset="1" stop-color="#A3A2E0"/>
</linearGradient>
<linearGradient id="paint3_linear_1_2" x1="310.5" y1="524" x2="255" y2="589" gradientUnits="userSpaceOnUse">
<stop stop-color="#D9D9D9"/>
<stop offset="1" stop-color="#D9D9D9" stop-opacity="0.46"/>
</linearGradient>
</defs>
</svg>
