<svg width="380" height="580" viewBox="0 0 380 580" fill="none" xmlns="http://www.w3.org/2000/svg">
<g id="mermaid-flowers">
<path id="back-dress" d="M269.527 425.186C273.078 468.311 231.796 483.632 210.711 485.901C174.755 508.598 101.772 487.793 69.7743 474.553L67 449.586L183.522 365.039C228.837 362.013 325.971 357.204 349.054 358.112C370.139 392.158 271.192 409.866 269.527 425.186Z" fill="url(#paint0_linear_1_2)"/>
<path id="back-hair" d="M175 81.9907C155.941 84.6636 147.851 53.7773 146.189 38C143.234 38 136.659 39.6705 134 46.3527C139.541 88.116 165.581 83.6613 175 81.9907Z" fill="#9392C8"/>
<path id="back-foot" d="M102.606 513.091L100.364 474L111.015 478.468L134 558.883L124.47 560L97 539.896L102.606 513.091Z" fill="#514963"/>
<path id="body" d="M138.839 74.0633L142.202 82.9683L132.112 91.8733L124.825 101.891C122.583 100.964 116.417 99.6651 109.691 101.891C102.964 128.606 109.877 135.285 114.175 135.285C118.526 155.103 97.9193 182.036 93.9955 208.751C112.406 287.905 172.287 380.011 182 394.642C165.184 396.869 129.87 474.23 123.704 493.154C114.175 517.086 140.52 550.479 153.973 559.384C149.489 562.724 137.717 559.941 129.87 559.384C105.958 534.562 97.8525 527.528 93.2941 523.572L92.8744 523.208C91.1928 519.312 101.283 507.624 106.888 498.163C106.888 471.893 116.23 436.013 120.901 421.357L106.888 415.235L93.9955 226.561L57 203.185L65.9686 124.154C67.8371 123.226 72.4709 121.928 76.0583 124.154C88.1659 128.161 89.6981 110.982 88.9507 101.891L86.7085 62.3755C99.0404 56.9955 126.731 44.7882 138.839 39C149.601 40.3357 143.323 62.9321 138.839 74.0633Z" fill="url(#paint1_linear_1_2)"/>
<path id="front-hair" d="M147.1 37.2168C144.129 48.723 132.645 70.9081 101 62C97.1001 63.6703 88.7432 68.8082 101 80.5C109.914 85.5108 118.687 89.5516 125.372 95.1192C132.058 100.687 143.2 116.833 151 121.287C143.2 122.957 130.943 107.925 120.358 105.697C125.061 110.397 134.665 125.383 145.033 125.847C145.723 125.813 146.412 125.777 147.1 125.741C146.409 125.844 145.719 125.877 145.033 125.847C135.114 126.327 124.878 126.239 109.772 117.389C125.372 129.081 118.129 134.649 132.615 134.092C122.586 136.319 110.887 132.422 86.373 110.152C98.6299 125.741 93.6157 128.524 120.358 143C98.6299 136.876 65.7592 127.968 65.7592 99.5732C63.5307 105.698 62.9736 120.73 71.3305 125.741C60.1879 121.287 40.1313 107.368 61.3022 72.2923C68.5449 60.6004 71.8877 62.2707 74.6733 43.8978C81.3588 34.433 88.6015 16.0601 112.558 19.4007C128.603 24.3001 142.272 33.3195 147.1 37.2168Z" fill="url(#paint2_linear_1_2)"/>
<path id="dress" d="M61.9121 135.655C61.9121 139.549 56.1564 154.386 53 160.692C53 166.924 65.2542 165.514 71.3813 164.03C72.3097 170.522 74.7234 185.396 76.9514 192.962C81.2109 207.428 82.5215 255.278 76.9514 273.638C58.0131 328.72 69.1533 432.208 66.9252 451.125C145.464 537.365 240.712 487.847 224.559 477.275C140.339 412.735 271.905 373.046 351 362.66C349.886 358.765 340.444 350.696 335.961 348.194C317.022 337.623 260.181 317.369 253.523 314.811C224.559 303.683 218.989 299.788 200.05 293.668C184.9 289.662 168.115 256.39 161.617 240.255L125.411 244.706H110.929L104.802 235.248C105.545 218.371 107.253 182.725 108.144 175.158C118.17 170.707 126.525 176.827 133.209 177.384C138.222 146.226 121.512 135.655 110.929 131.76C105.173 140.106 87.089 158.021 85.3065 162.918C78.6224 158.467 78.6224 125.083 73.6093 122.302C65.8112 120.076 61.9121 130.738 61.9121 135.655Z" fill="url(#paint3_linear_1_2)"/>
<path id="stems" d="M124.812 226.816C127.308 230.19 128.588 233.856 129.07 238.065C130.207 247.993 128.296 258.268 126.111 267.911C122.929 281.95 117.344 294.841 110.95 307.646M177 229.538C172.216 230.627 167.963 232.408 163.591 234.679C153.629 239.852 143.841 245.653 134.748 252.248C124.464 259.707 114.732 268.182 107.386 278.646C104.363 282.952 101.088 288.878 98.9597 293.766C93.9005 305.386 99.395 293.805 96 303.291M162.594 232.259C154.33 235.579 146.55 240.44 139.037 245.172C131.678 249.805 125.65 254.87 120.04 261.531C113.008 269.882 105.823 278.989 101.738 289.23C99.9861 293.622 99.706 297.878 99.2617 302.475M132.695 232.804C132.598 244.457 131.298 255.567 127.47 266.656C124.859 274.22 121.572 281.583 117.836 288.655C113.401 297.049 107.79 304.351 102.252 312M146.829 231.715C136.713 235.29 128.263 244.654 121.943 252.943C116.087 260.624 111.371 269.163 108.564 278.435C107.327 282.519 106.223 288.013 105.695 292.284C104.47 302.183 105.895 293.604 105.242 302.475M128.074 228.722C128.074 241.226 127.557 253.696 125.084 265.991C123.606 273.337 121.592 280.438 118.077 287.083C115.07 292.768 111.274 297.364 107.144 302.203M149.819 231.715C136.282 240.513 124.424 253.211 115.872 266.853C111.102 274.464 106.849 282.959 104.94 291.8C104.294 294.788 103.993 298.374 104.215 301.447C104.621 307.085 104.934 303.861 105.785 309.278M132.966 229.538C132.264 240.083 128.333 250.18 124.117 259.747C118.435 272.642 112.41 285.317 107.144 298.392M134.054 232.259C133.203 242.196 131.377 251.368 126.805 260.336C120.513 272.682 111.133 283.29 102.524 294.038M144.111 233.892C140.343 235.882 137.24 238.926 134.235 241.906C128.038 248.051 122.342 254.728 117.111 261.712C112.3 268.135 107.755 274.886 104.547 282.275C102.89 286.093 102.193 289.749 101.436 293.766M126.171 226C129.729 238.331 128.764 251.298 126.232 263.769C123.83 275.597 120.18 286.85 115.299 297.848M156.886 232.532C154.492 233.462 152.422 234.705 150.423 236.342C143.074 242.357 136.853 249.897 130.852 257.207C125.021 264.31 119.26 271.653 114.725 279.674C112.814 283.054 111.674 285.423 110.482 289.033C109.507 291.984 109.446 294.578 109.047 297.576M135.413 234.709C136.866 260.894 123.871 283.163 111.493 305.196" stroke="#083476" stroke-width="2" stroke-linecap="round"/>
<g id="flowers">
<path id="Vector 1" d="M135.805 199.778C134.239 198.924 126.25 193.905 124.566 195.896C123.502 197.153 126.039 199.373 126.862 199.884C128.775 201.07 131.004 201.852 133.191 202.346C134.731 202.694 134.489 201.556 134.717 200.322C135.105 198.219 136.258 196.198 137.647 194.582C139.293 192.666 141.819 192.307 140.095 195.488C139.134 197.259 138.01 199 136.756 200.579C136.309 201.142 135.061 202.829 134.309 202.996C134.025 203.059 133.696 202.307 133.327 202.225C131.482 201.815 129.657 201.569 127.768 201.848C125.525 202.179 123.263 202.924 121.424 204.28C120.144 205.222 119.399 206.909 121.393 207.482C125.714 208.724 130.529 204.968 133.357 202.225C135.324 200.318 130.45 207.385 130.94 210.08C131.117 211.049 132.29 211.11 132.949 210.594C134.279 209.553 135.003 206.909 135.502 205.382C135.644 204.949 136.451 203.047 136.016 202.558C135.91 202.438 135.799 205.223 135.805 205.458C135.864 207.889 136.603 209.838 138.614 211.289C139.275 211.765 140.143 212.055 140.427 211.077C141.188 208.461 138.73 202.693 136.122 201.606C134.924 201.107 137.937 203.533 139.098 204.113C140.618 204.874 142.891 205.736 144.611 205.035C148.451 203.471 141.644 199.7 140.367 199.295C139.152 198.91 134.664 198.253 133.901 199.778" stroke="#FBDFFF" stroke-width="3" stroke-linecap="round"/>
<path id="Vector 2" d="M142.874 176.394C140.797 172.933 135.581 170.758 131.817 170.034C130.068 169.698 132.194 174.022 132.662 174.49C134.844 176.672 138.126 177.708 141.137 177.995C142.321 178.108 142.602 178.118 142.602 176.938C142.602 174.782 142.771 172.775 143.841 170.85C144.434 169.782 146.263 167.183 147.769 167.421C148.759 167.577 146.77 172.344 146.53 172.844C145.988 173.971 144.257 177.703 142.723 177.784C142.63 177.788 142.529 176.535 142.421 176.379C139.971 172.815 132.093 174.939 129.732 177.481C128.396 178.92 128.006 180.371 130.276 180.956C132.998 181.657 135.88 180.486 138.252 179.219C139.314 178.651 140.307 177.966 141.288 177.27C142.096 176.697 141.731 176.822 141.243 177.33C139.222 179.43 137.522 182.427 136.65 185.186C136.357 186.115 135.38 188.432 137.179 188.312C139.199 188.178 140.197 185.09 140.85 183.584C141.254 182.652 141.653 181.7 141.998 180.744C142.085 180.505 142.319 179.278 142.345 179.491C142.64 181.849 142.963 184.196 144.566 186.062C148.389 190.511 147.374 181.92 146.077 179.989C145.464 179.076 143.355 177.675 144.853 179.672C146.382 181.71 149.429 182.761 151.908 182.587C153.896 182.448 155.474 181.533 154.491 179.37C153.401 176.973 150.243 176.465 147.92 176.122C147.185 176.013 144.621 175.365 143.871 175.865C143.575 176.062 144.518 176.181 144.868 176.243C146.228 176.481 147.766 176.496 149.128 176.273C150.926 175.979 153.783 175.21 154.672 173.433C155.453 171.871 152.036 172.044 151.303 172.104C147.178 172.441 141.787 174.458 141.787 179.113" stroke="#FBDFFF" stroke-width="3" stroke-linecap="round"/>
<path id="Vector 3" d="M179.31 179.113C178.559 176.742 177.311 175.021 174.96 174.007C174.316 173.729 170.53 172.061 170.398 173.433C170.17 175.787 172.66 177.78 174.476 178.781C176.009 179.625 179.018 181.478 180.896 181.243C181.419 181.177 180.936 177.57 180.972 177.058C181.127 174.852 182.624 172.084 185.081 171.832C187.273 171.607 187.103 174.05 186.531 175.518C185.625 177.841 182.915 180.133 180.972 181.651C180.394 182.102 179.677 182.788 179.567 181.802C179.42 180.475 178.714 179.366 177.512 178.75C175.132 177.531 165.579 179.257 169.008 183.192C171.732 186.318 178.781 184.349 181.032 181.454C182.958 178.978 175.963 186.002 175.564 189.113C175.386 190.501 176.213 190.839 177.407 190.201C179.315 189.181 181.004 186.93 182.18 185.155C183.569 183.059 182.452 183.452 181.818 185.457C181.212 187.374 180.139 191.039 181.652 192.814C184.991 196.735 185.503 185.886 185.02 184.068C184.726 182.959 184.04 182.616 184.537 184.068C185.373 186.513 187.366 187.798 189.824 188.328C191.342 188.655 194.863 188.865 194.733 186.409C194.605 183.967 191.732 182.964 189.779 182.406C187.659 181.8 185.35 181.56 183.147 181.56C181.565 181.56 184.669 181.51 185.02 181.439C186.61 181.118 194.63 177.709 189.477 176.545C187.698 176.143 178.416 177.908 180.126 180.472" stroke="#FBDFFF" stroke-width="3" stroke-linecap="round"/>
<path id="Vector 4" d="M166.258 211.742C165.206 209.442 163.972 208.232 161.485 207.512C159.393 206.907 156.968 206.837 157.089 209.688C157.192 212.099 160.029 213.369 161.908 214.174C162.681 214.505 165.976 216.256 166.953 215.639C167.483 215.305 167.172 211.408 167.376 210.745C167.83 209.273 170.089 205.109 172.331 206.364C175.753 208.281 168.774 216.144 166.591 216.848C165.76 217.116 164.686 216.135 163.962 215.881C161.61 215.055 158.638 215.116 156.243 215.715C154.65 216.113 152.873 217.646 153.252 219.476C153.706 221.669 158.147 221.392 159.733 221.138C161.993 220.776 164.478 219.359 165.926 217.573C166.688 216.633 164.521 217.999 164.34 218.162C162.809 219.54 161.636 221.552 161.636 223.646C161.636 225.549 162.912 225.016 163.947 223.948C165.312 222.539 166.349 220.939 167.165 219.159C167.691 218.01 167.125 221.942 167.074 222.347C166.857 224.069 166.212 227.215 167.406 228.752C168.784 230.522 169.302 226.833 169.37 226.259C169.622 224.137 169.876 221.422 169.37 219.325C169.038 217.948 169.44 221.051 169.642 221.531C171.188 225.192 177.142 227.364 177.935 221.939C178.47 218.286 176.347 216.522 172.845 217.452C172.061 217.66 170.264 217.848 169.703 218.479C168.812 219.482 172.36 218.103 173.676 217.845C175.699 217.447 177.984 217.068 179.688 215.806C180.665 215.081 181.092 213.749 179.612 213.373C175.96 212.448 169.994 214.356 168.434 217.996" stroke="#FBDFFF" stroke-width="3" stroke-linecap="round"/>
<path id="Vector 5" d="M204.598 202.497C203.625 200.715 196.937 193.058 194.93 197.663C193.521 200.894 200.464 207.28 201.229 205.397C202.175 203.069 203.616 200.624 205.564 198.992C206.372 198.316 208.828 196.611 209.326 198.494C209.996 201.027 207.933 203.181 206.108 204.612C205.073 205.424 203.884 205.945 202.74 206.576C202.187 206.881 201.027 208.052 200.368 208.086C200.192 208.096 200.212 207.485 200.187 207.391C200.041 206.852 199.726 206.29 199.431 205.82C198.332 204.072 196.245 203.313 194.265 203.313C192.43 203.313 189.211 203.85 188.132 205.549C186.537 208.06 189.652 208.872 191.516 208.993C193.899 209.146 196.484 208.673 198.661 207.678C200.686 206.753 197.372 208.756 196.833 209.295C196.16 209.968 195.078 211.456 195.413 212.497C195.83 213.794 198.979 211.784 199.386 211.455C200.547 210.515 201.727 209.447 202.785 208.388C203.669 207.505 201.292 210.428 200.836 211.591C200.115 213.431 200.012 215.839 200.398 217.769C200.656 219.056 201.851 219.487 202.573 218.207C203.097 217.28 204.152 208.316 202.483 208.872C201.711 209.129 203.589 212.187 203.782 212.437C204.786 213.738 206.633 214.46 208.268 214.144C212.215 213.38 208.613 208.759 206.924 207.678C206.648 207.502 204.885 206.993 205.716 207.527C206.761 208.199 208.016 208.24 209.22 208.207C210.941 208.161 209.858 205.235 208.525 204.959C207.558 204.759 201.335 204.446 201.335 205.488" stroke="#FBDFFF" stroke-width="3" stroke-linecap="round"/>
<path id="Vector 6" d="M205.957 178.569C205.879 176.459 204.157 173.19 201.939 172.647C200.695 172.343 200.796 174.573 200.851 175.291C201.028 177.584 203.097 179.23 204.839 180.442C205.043 180.584 206.598 181.883 206.984 181.711C207.28 181.58 207.087 178.365 207.166 177.965C207.55 176.003 208.874 174.39 210.549 173.342C211.606 172.682 213.269 172.402 213.269 174.007C213.269 177.328 209.409 180.602 206.561 181.832C206.078 182.041 205.685 182.558 205.685 181.817C205.685 180.685 205.365 179.629 204.16 179.279C201.671 178.557 195.588 182.186 197.921 185.186C199.848 187.663 204.908 183.667 206.305 182.27C207.335 181.24 206.194 182.551 205.897 182.98C205.018 184.248 204.086 185.659 203.827 187.21C203.263 190.595 206.471 187.18 207.166 186.062C207.641 185.295 209.19 183.802 209.19 182.844C209.19 181.587 208.191 185.213 208.148 186.47C208.104 187.74 207.937 189.429 208.948 190.412C209.718 191.16 210.93 190.858 211.335 189.929C212.658 186.89 211.261 184.658 209.658 182.164C209.439 181.823 210.33 183.223 210.58 183.463C211.895 184.73 213.82 185.342 215.625 185.367C218.922 185.411 217.823 182.857 215.716 181.711C214.329 180.957 212.915 180.493 211.335 180.472C210.909 180.467 209.21 180.18 209.492 180.744" stroke="#E1B1C5" stroke-width="3" stroke-linecap="round"/>
<path id="Vector 7" d="M151.575 199.506C151.447 197.076 148.783 194.928 146.681 194.128C142.565 192.563 146.068 196.388 147.376 197.482C148.718 198.604 150.209 199.64 151.696 200.564C152.851 201.28 153.025 201.202 153.328 199.989C153.494 199.324 156.42 192.919 157.769 194.672C158.236 195.28 157.616 197.252 157.391 197.875C156.901 199.232 155.721 200.385 154.627 201.289C154.162 201.673 153.646 202.106 153.086 202.346C152.905 202.424 152.884 201.858 152.663 201.742C150.804 200.763 147.268 201.284 145.654 202.437C143.349 204.083 144.218 206.708 147.119 205.866C147.962 205.621 153.759 201.497 153.433 201.334C152.488 200.861 148.94 208.981 148.871 209.914C148.684 212.448 151.528 209.024 151.983 208.434C153.068 207.026 154.05 205.356 154.566 203.645C154.66 203.336 154.67 201.836 154.581 202.542C154.254 205.16 156.895 206.699 159.174 206.833C162.399 207.022 159.86 203.114 158.645 202.135C157.59 201.285 156.299 200.903 154.959 200.866C154.319 200.848 155.305 200.912 155.503 201.002C156.764 201.575 155.217 201.468 155.382 201.138" stroke="#A2A0F6" stroke-width="3" stroke-linecap="round"/>
<path id="Vector 8" d="M160.004 179.657C158.582 177.706 155.263 173.659 152.3 174.928C151.331 175.344 151.949 177.618 152.24 178.297C153.039 180.162 155.079 181.69 156.998 182.21C157.775 182.42 161.721 183.504 161.243 181.862C160.139 178.067 161.657 174.391 165.473 172.919C168.771 171.647 164.077 178.834 163.539 179.536C162.632 180.721 161.804 182.007 160.82 183.131C160.53 183.463 158.991 182.017 158.6 181.832C155.506 180.367 149.424 180.576 148.479 184.672C147.428 189.226 155.171 185.58 156.59 184.672C158.004 183.768 159.58 182.857 160.85 181.756C161.779 180.952 158.879 183.281 158.162 184.279C157.704 184.916 155.144 191.386 157.497 189.596C159.639 187.967 160.661 185.243 161.621 182.844C162.428 180.825 160.871 187.96 162.588 189.294C163.436 189.955 164.927 184.82 165.171 184.128C165.54 183.078 165.628 183.423 166.017 184.173C166.619 185.334 167.185 186.469 168.524 186.877C170.716 187.546 171.153 182.602 169.672 181.56C168.708 180.881 167.464 180.472 166.289 180.472C165.483 180.472 165.573 181.452 165.443 182.104" stroke="#A2A0F6" stroke-width="3" stroke-linecap="round"/>
<path id="Vector 9" d="M143.146 162.526C144.339 161.035 141.552 158.331 140.306 157.783C139.259 157.322 138.477 157.493 138.312 158.78C138.053 160.802 139.121 162.736 140.563 164.082C141.639 165.087 143.014 165.791 144.46 166.046C145.925 166.305 145.519 165.665 145.654 164.369C145.848 162.499 146.527 160.642 147.678 159.143C148.247 158.402 150.029 156.568 151.183 157.209C153.907 158.722 148.305 164.165 147.406 165.064C147.257 165.214 145.949 166.803 145.654 166.545C145.575 166.476 145.91 166.116 145.835 165.91C145.023 163.678 140.751 163.178 138.916 163.946C135.702 165.292 134.507 169.264 139.052 169.264C140.498 169.264 142.111 168.588 143.388 167.949C144.117 167.585 146.136 166.454 145.321 166.454C144.787 166.454 142.892 170.037 143.206 170.351C144.17 171.315 147.208 167.758 147.723 167.179C148.548 166.251 147.696 168.261 147.617 168.72C147.457 169.662 147.187 171.443 148.056 172.149C150.152 173.853 150.524 169.007 150.427 168.025C150.333 167.066 149.993 166.161 149.566 165.306C149.102 164.378 150.928 166.942 151.847 167.421C153.091 168.069 156.753 168.404 155.412 165.94C154.503 164.27 149.236 162.12 148.312 164.43" stroke="#A2A0F6" stroke-width="3" stroke-linecap="round"/>
<path id="Vector 10" d="M195.897 194.068C194.889 191.269 192.167 187.876 188.721 188.131C187.739 188.204 187.628 189.233 187.936 189.989C188.488 191.349 190.34 192.395 191.606 192.98C192.498 193.393 193.503 193.826 194.477 194.007C195.439 194.187 195.032 192.915 195.111 192.3C195.311 190.755 198.942 186.207 199.809 189.385C200.652 192.474 198.047 194.875 195.746 196.394C194.825 197.002 194.567 196.502 193.842 195.835C192.821 194.895 191.61 194.55 190.247 194.4C189.027 194.266 183.707 194.432 185.473 196.787C187.312 199.238 190.353 198.371 192.619 197.059C193.224 196.708 194.851 195.386 194.356 195.881C193.41 196.827 192.796 198.199 192.211 199.385C191.274 201.285 191.666 202.505 193.752 200.941C194.871 200.101 195.797 199.008 196.667 197.92C197.408 196.994 196.323 198.291 196.169 198.539C195.494 199.622 195.346 202.924 197.528 201.832C199.086 201.053 199.591 197.886 199.024 196.409C198.72 195.62 199.324 196.864 199.492 197.059C200.437 198.155 202.047 198.965 203.465 199.189C205.609 199.528 206.977 197.944 204.598 196.787C203.312 196.162 200.263 195.055 198.888 195.971" stroke="#A2A0F6" stroke-width="3" stroke-linecap="round"/>
<path id="Vector 11" d="M144.506 220.171C143.702 218.069 141.891 213.847 138.856 214.522C137.881 214.738 138.035 215.962 138.373 216.636C139.144 218.18 140.916 218.967 142.421 219.597C143.037 219.855 144.3 220.559 145.004 220.383C145.534 220.25 146.303 217.271 146.741 216.697C148.103 214.911 151.44 213.236 150.699 216.939C150.316 218.856 147.211 221.742 145.11 221.742C144.742 221.742 144.252 220.703 143.947 220.458C143.021 219.718 141.447 219.756 140.367 220.081C139.536 220.33 133.19 224.379 135.699 225.73C137.736 226.827 141.081 223.298 142.481 222.135C143.064 221.651 143.52 221.101 142.814 222.135C141.947 223.403 141.332 224.798 140.82 226.244C139.975 228.629 141.257 229.585 143.025 227.573C144.005 226.459 144.648 225.053 145.306 223.736C145.97 222.409 145.818 223.1 145.593 224.099C145.456 224.706 145.062 229.458 146.968 228.147C148.378 227.178 148.795 223.662 148.448 222.135C148.25 221.264 148.412 222.157 148.63 222.498C149.466 223.805 151.113 224.531 152.603 224.733C154.929 225.049 156.484 223.379 154.385 221.425C152.743 219.896 149.137 219.899 146.953 219.899" stroke="#A2A0F6" stroke-width="3" stroke-linecap="round"/>
<g id="Vector 12" filter="url(#filter0_d_1_2)">
<path d="M178.494 212.286C178.379 210.201 175.803 208.33 173.872 208.222C169.872 208 174.667 212.553 176.032 213.343C176.692 213.725 179.773 215.611 179.854 214.401C179.989 212.372 181.338 208.603 183.933 208.751C184.718 208.796 184.502 210.068 184.476 210.594C184.406 212.043 182.951 213 181.878 213.766C180.917 214.453 179.698 215.379 178.555 215.76C178.111 215.908 177.974 214.991 177.769 214.718C175.937 212.275 172.097 214.417 171.002 216.516C169.313 219.752 175.698 217.396 176.651 216.848C177.67 216.262 178.533 215.503 179.461 214.793C180.151 214.266 178.297 216.123 178.102 216.38C177.001 217.822 175.952 219.551 175.413 221.289C175.166 222.085 175.19 223.416 176.334 222.558C177.489 221.692 178.434 220.359 179.295 219.22C179.615 218.796 180.901 216.335 180.67 216.969C180.333 217.888 179.712 222.201 181.425 222.075C182.949 221.962 183.038 217.687 183.102 216.667C183.165 215.65 182.967 215.146 183.933 216.093C184.966 217.106 185.851 218.035 187.316 218.374C189.606 218.902 191.22 217.641 188.827 215.821C187.387 214.726 185.639 214.291 183.857 214.204C183.45 214.184 182.302 213.919 182.573 214.461" stroke="#566885" stroke-width="3" stroke-linecap="round" shape-rendering="crispEdges"/>
</g>
<g id="Vector 13" filter="url(#filter1_d_1_2)">
<path d="M166.53 164.974C165.481 163.153 164.625 161.708 162.603 160.895C162.181 160.725 159.715 159.746 159.521 160.744C159.235 162.213 161.44 163.797 162.452 164.43C163.202 164.899 165.218 166.629 166.198 166.484C166.709 166.408 167.466 163.103 167.829 162.526C168.334 161.726 169.888 159.524 171.092 159.868C174.037 160.709 167.262 166.99 166.561 167.542C165.913 168.05 165.591 166.763 164.989 166.348C163.209 165.121 160.842 165.182 158.856 165.804C155.49 166.861 155.677 169.854 159.43 169.536C161.625 169.349 163.529 168.622 165.261 167.27C166.323 166.441 163.224 169.042 162.331 170.049C161.303 171.208 160.004 172.769 160.004 174.43C160.004 175.487 162.794 173.412 163.041 173.206C164.763 171.771 166.36 170.04 167.573 168.146C168.347 166.937 167.315 169.186 167.225 169.762C167.148 170.255 166.874 175.45 168.706 173.357C169.253 172.732 170.221 166.363 169.129 166.363C168.524 166.363 169.994 169.19 170.216 169.43C171.297 170.597 173.849 171.281 175.382 170.835C176.633 170.471 176.363 169.032 175.715 168.236C174.53 166.783 172.486 166.581 170.79 166.122C170.494 166.041 167.515 165.143 168.887 165.91C170.67 166.907 172.388 166.877 174.37 166.877C176.698 166.877 175.632 164.781 174.144 164.037C172.859 163.395 169.018 163.219 168.434 164.974" stroke="#B9D5FF" stroke-width="3" stroke-linecap="round" shape-rendering="crispEdges"/>
</g>
<g id="Vector 14" filter="url(#filter2_d_1_2)">
<path d="M175.503 199.778C174.902 199.288 167.352 194.056 167.119 196.968C166.937 199.245 171.057 202.195 173.177 202.195C173.266 202.195 174.294 199.497 174.476 199.234C175.451 197.828 176.899 196.572 178.645 196.304C179.939 196.105 179.132 198.532 178.857 199.083C177.968 200.86 176.431 202.157 174.688 203.041C174.61 203.08 173.116 203.833 173.071 203.675C172.776 202.64 172.565 202.017 171.41 201.576C168.168 200.336 163.064 202.898 162.225 206.394C161.578 209.089 169.865 204.068 170.7 203.464C171.915 202.584 171.869 202.809 171.168 203.993C170.79 204.63 170.226 206.077 170.397 206.848C171.097 209.994 174.473 205.763 174.839 204.793C174.917 204.585 175.203 203.226 175.02 203.978C174.736 205.144 174.531 206.68 174.748 207.875C175.31 210.964 176.511 205.336 176.712 204.552C176.921 203.733 176.883 201.267 177.18 202.059C177.701 203.448 178.513 204.852 179.718 205.745C180.049 205.99 181.814 207.338 182.18 206.606C182.663 205.64 181.157 204.036 180.67 203.313C180.535 203.113 179.318 201.791 179.975 202.467C181.002 203.525 181.771 204.633 183.328 204.884C187.285 205.522 186.802 201.346 183.328 200.594C181.799 200.263 177.853 199.253 177.135 201.409" stroke="#B9D5FF" stroke-width="3" stroke-linecap="round" shape-rendering="crispEdges"/>
</g>
<g id="Vector 15" filter="url(#filter3_d_1_2)">
<path d="M194.809 178.841C193.693 176.721 191.752 175.18 189.28 175.321C186.361 175.488 191.343 179.594 192.467 180.034C193.027 180.253 193.345 180.447 193.616 179.823C194.356 178.115 195.174 176.486 196.44 175.095C196.976 174.506 198.833 172.945 199.779 173.599C200.775 174.289 198.187 177.062 197.74 177.481C196.654 178.499 195.521 179.525 194.326 180.412C194.178 180.521 192.461 181.777 193.449 181.424C194.683 180.984 194.31 179.607 193.011 179.415C189.845 178.946 186.407 180.957 185.866 184.204C185.472 186.566 191.189 182.948 191.803 182.512C192.421 182.072 193.346 180.957 194.099 180.79C194.322 180.74 193.516 182.75 193.449 182.98C193.321 183.423 192.672 186.906 194.054 186.394C195.681 185.791 196.412 180.195 196.697 181.907C196.991 183.668 197.068 186.449 199.431 186.711C201.381 186.928 201.097 183.691 201.063 182.497C201.044 181.843 200.677 182.38 200.957 182.784C201.384 183.4 202.263 183.771 202.966 183.947C203.512 184.083 204.007 183.99 203.706 183.297C203.134 181.982 201.061 181.461 199.794 181.349C197.876 181.179 195.92 181.288 193.993 181.288" stroke="#B9D5FF" stroke-width="3" stroke-linecap="round" shape-rendering="crispEdges"/>
</g>
<g id="Vector 16" filter="url(#filter4_d_1_2)">
<path d="M143.962 194.884C142.502 193.262 140.909 191.723 138.977 190.654C135.872 188.937 136.682 191.562 138.433 193.101C138.707 193.342 142.738 195.769 143.086 195.035C143.452 194.262 143.272 193.109 143.599 192.255C144.175 190.756 145.02 188.765 146.53 187.98C147.201 187.631 147.93 187.589 147.995 188.539C148.111 190.223 146.743 191.696 145.654 192.799C144.778 193.686 143.808 194.474 142.935 195.367C142.707 195.6 141.906 196.369 142.617 195.835C144.03 194.776 142.227 194.324 141.182 194.34C138.795 194.377 135.482 196.508 135.276 199.083C135.057 201.813 138.699 199.015 139.445 198.418C140.652 197.453 141.815 196.387 142.95 195.337C144.097 194.275 143.212 195.265 142.874 196.092C142.512 196.977 140.1 201.919 142.753 201.666C144.933 201.459 145.321 197.95 145.321 196.304C145.321 195.361 145.384 197.12 145.442 197.331C145.724 198.353 146.662 199.53 147.753 199.748C149.67 200.131 150.173 197.821 151.575 197.119C154.709 195.552 150.17 191.969 148.584 194.612" stroke="#B9D5FF" stroke-width="3" stroke-linecap="round" shape-rendering="crispEdges"/>
</g>
<g id="Vector 17" filter="url(#filter5_d_1_2)">
<path d="M151.847 209.839C150.626 208.618 149.065 207.064 147.255 206.863C145.437 206.661 149.126 210.668 149.672 211.047C150.127 211.363 153.134 213.339 153.207 212.437C153.374 210.379 155.359 207.171 157.497 206.636C159.035 206.252 156.271 210.92 156.032 211.198C155.055 212.332 153.169 214.315 151.817 213.253C150.147 211.94 147.237 212.583 145.654 213.645C144.006 214.751 142.778 217.958 145.986 216.999C148.198 216.338 150.275 214.514 152.21 213.283C152.461 213.123 151.661 214.972 151.59 215.171C151.264 216.089 150.865 217.363 151.047 218.359C151.26 219.531 153.669 216.288 153.751 216.153C154.11 215.557 154.687 213.691 154.838 214.37C155.014 215.163 154.792 216.092 154.899 216.908C155.14 218.762 155.803 218.494 156.757 217.301C158.052 215.682 159.02 214.836 160.684 216.062C162.311 217.261 160.659 214.402 160.216 213.978C159.659 213.445 157.46 212.043 158.101 213.645" stroke="#B9D5FF" stroke-width="3" stroke-linecap="round" shape-rendering="crispEdges"/>
</g>
</g>
<path id="right-arm" d="M122.508 225.613L133.098 175.759C128.639 173.07 113.776 172.398 107.459 173.518L103 235.135C103.929 235.695 106.679 239.392 110.246 245.218C114.705 247.907 145.175 242.977 159.852 240.737H193.852L200.541 236.816L205 227.853V221.132H200.541L189.951 227.853L181.59 224.492L189.951 221.132L193.852 215.53L186.607 219.451H178.803C176.945 221.132 172.449 224.492 169.328 224.492C166.207 229.422 134.585 227.667 122.508 225.613Z" fill="url(#paint4_linear_1_2)"/>
<path id="front-flowers" d="M154.968 223.887C154.968 221.299 147.467 218.396 149.754 222.92C150.091 223.586 153.146 226.558 153.99 225.677C155.318 224.291 155.302 221.812 157.502 221.059C158.623 220.675 157.234 224.423 156.995 224.711C156.892 224.835 156.78 224.953 156.661 225.067M156.661 225.067C155.866 225.83 154.773 226.38 153.918 227.038C153.747 227.169 153.688 226.973 153.667 226.75M156.661 225.067C157.491 225.209 158.292 225.4 159.04 225.839C160.15 226.489 162.516 228.168 160.163 229.186C159.146 229.626 156.098 229.185 155.963 227.915C155.962 227.904 155.961 227.891 155.96 227.878M156.661 225.067C156.365 225.017 156.066 224.972 155.764 224.925C155.162 224.832 154.114 225.095 154.968 224.532M153.667 226.75C153.655 226.628 153.654 226.498 153.652 226.408M153.667 226.75C154.07 226.153 154.263 225.915 153.652 226.408M153.667 226.75C153.433 227.095 153.128 227.562 152.868 228.076C152.429 228.945 151.695 231.843 153.682 230.762C154.797 230.155 155.565 229.07 155.96 227.878M153.652 226.408C153.651 226.358 153.65 226.321 153.646 226.304C153.477 225.553 151.84 225.812 151.311 225.821C149.437 225.851 146.765 226.323 147.166 228.703C147.562 231.054 152.439 227.421 152.958 226.984C153.258 226.732 153.485 226.543 153.652 226.408ZM155.96 227.878C156.166 227.257 156.271 226.607 156.271 225.982C156.271 225.193 155.927 227.319 155.96 227.878ZM127.598 218.087L127.567 218.052C126.328 216.674 125.636 215.903 123.76 215.187C120.8 214.055 121.141 217.058 123.561 217.908C124.971 218.402 126.677 218.989 128.177 219.054C129.129 219.094 129.233 218.86 129.234 218.254M129.234 218.254C129.234 218.05 129.222 217.805 129.227 217.514C129.247 216.327 129.598 215.21 130.368 214.274C130.666 213.91 131.728 213.576 131.816 214.274C131.992 215.665 131.476 216.81 130.735 217.863M129.234 218.254C129.702 218.099 130.31 217.957 130.735 217.863M129.234 218.254C128.757 218.411 128.425 218.582 128.575 218.731M130.735 217.863C130.14 218.71 129.399 219.498 128.757 220.307C127.96 221.31 127.032 220.27 125.969 220.092C124.973 219.925 118.896 221 120.176 222.741C121.817 224.972 126.86 221.729 128.25 220.736C130.278 219.287 128.031 221.466 127.526 222.097C127.093 222.637 125.407 227.116 127.308 225.445C128.437 224.453 129.67 223.307 130.458 222.025C130.687 221.653 130.856 219.993 130.856 220.987C130.856 221.97 130.678 223.135 131.218 224.012C131.466 224.415 132.688 225.729 132.793 224.639C132.914 223.388 133.134 221.509 132.54 220.226M130.735 217.863C130.937 217.819 131.097 217.784 131.182 217.765C132.7 217.41 134.207 217.376 135.689 217.926C137.465 218.584 138.663 220.987 135.925 220.987C134.726 220.987 133.566 220.782 132.54 220.226M132.54 220.226C132.303 219.714 131.936 219.297 131.381 219.054C130.787 218.792 131.692 219.661 131.834 219.77C132.061 219.943 132.296 220.094 132.54 220.226ZM134.766 181.996C134.733 181.716 134.624 181.459 134.457 181.224M134.457 181.224C133.357 179.681 129.72 179.096 128.286 179.096C126.027 179.096 131.004 182.082 131.58 182.318C132.431 182.665 133.332 182.962 134.259 182.962C134.884 182.962 134.44 182.017 134.44 181.512C134.44 181.438 134.446 181.34 134.457 181.224ZM134.457 181.224C134.549 180.281 135.032 178.171 136.214 178.505C137.543 178.88 135.293 182.826 134.878 183.54M134.878 183.54C134.862 183.567 134.849 183.589 134.839 183.607C134.779 183.709 134.537 183.922 134.402 184.023M134.878 183.54C134.731 183.657 134.585 183.786 134.44 183.929C134.422 183.947 134.406 183.963 134.392 183.977M134.878 183.54C135.602 182.962 136.367 182.664 137.3 182.318C138.499 181.874 141.221 180.428 140.939 182.658C140.667 184.81 138.078 185.47 136.215 185.535M134.402 184.023C134.305 184.096 134.264 184.11 134.392 183.977M134.402 184.023C134.4 184.007 134.396 183.992 134.392 183.977M134.402 184.023C134.454 184.298 134.381 184.749 134.242 185.171M134.392 183.977C134.308 183.654 134.016 183.63 133.391 184.323C132.575 185.227 132.627 186.171 133.084 186.945M136.215 185.535C136.11 185.539 136.007 185.54 135.907 185.54C134.889 185.54 134.265 185.332 134.229 185.211M136.215 185.535C136.041 185.427 135.836 185.343 135.599 185.29C134.75 185.098 134.324 185.1 134.242 185.171M136.215 185.535C136.804 185.9 137.047 186.551 137.047 187.313C137.047 189.516 134.088 188.644 133.084 186.945M134.229 185.211C134.225 185.196 134.229 185.183 134.242 185.171M134.229 185.211C134.234 185.198 134.238 185.184 134.242 185.171M134.229 185.211C134.147 185.452 134.045 185.682 133.934 185.863C133.714 186.217 133.424 186.593 133.084 186.945M133.084 186.945C132.226 187.831 131.05 188.565 129.897 188.423C128.553 188.257 128.542 185.895 129.3 185.147C130.373 184.085 132.262 183.285 133.789 183.285M191.46 218.087C191.322 217.952 191.184 217.819 191.046 217.686M191.046 217.686C190.025 216.704 189.003 215.787 187.677 215.205C187.331 215.052 184.944 214.285 184.69 214.685C183.935 215.881 188.348 218.109 189.107 218.409C190.973 219.147 190.731 218.673 191.046 217.686ZM191.046 217.686C191.102 217.512 191.175 217.322 191.279 217.12C192.034 215.668 194.053 214.447 195.696 214.542C196.82 214.608 194.784 217.791 194.248 218.087C193.766 218.353 190.698 219.378 192.257 218.982C193.55 218.653 195.995 217.501 197.325 218.158C198.491 218.735 197.991 220.231 197 220.504C195.309 220.968 193.239 220.665 191.479 220.665C190.442 220.665 190.483 219.631 190.483 221.148C190.483 224.981 186.863 226.179 187.243 221.488C187.311 220.649 188.93 219.162 188.039 219.358C186.602 219.674 185.313 220.02 183.803 220.02C181.494 220.02 181.235 218.519 183.641 218.087C185.375 217.775 186.939 217.623 188.528 218.409M166.046 189.73C166.391 189.687 166.69 189.126 166.989 188.414M166.989 188.414C167.442 187.334 167.895 185.906 168.508 185.397C170.278 183.927 171.908 184.409 171.512 186.758C171.374 187.582 169.534 190.785 168.779 189.873C168.258 189.243 167.646 188.791 166.989 188.414ZM166.989 188.414C165.985 187.836 164.879 187.433 163.837 186.829C162.834 186.247 161.232 186.259 162.009 187.796C162.763 189.287 164.679 189.662 166.046 190.302C166.792 190.652 167.307 190.696 168.127 190.696C169.408 190.696 165.66 191.401 164.489 191.914C163.644 192.284 161.353 193.821 162.317 195.047C163.603 196.681 165.842 194.329 166.625 193.417C167.116 192.846 168.327 190.365 168.327 190.875C168.327 191.7 167.463 194.854 168.001 195.387C168.383 195.765 168.473 194.423 168.652 193.919C169.063 192.766 169.63 191.615 169.63 190.374C169.63 188.974 171.343 191.301 172.635 191.663C177.965 193.157 170.921 188.142 170.282 189.407M190.157 166.85C189.955 166.562 189.738 166.234 189.525 165.877M189.525 165.877C189.335 165.56 189.148 165.221 188.976 164.868M189.525 165.877C190.05 165.416 190.433 164.814 190.694 164.157M189.525 165.877C189.466 165.929 189.405 165.979 189.343 166.027C188.719 166.507 186.529 163.843 185.885 163.467C184.77 162.815 182.866 161.946 183.387 163.95C184.018 166.375 186.205 166.483 188.202 166.922C189.07 167.113 190.493 166.874 189.324 167.369C187.782 168.023 184.828 169.762 185.288 171.809C185.611 173.247 188.627 170.29 188.854 170.001C189.218 169.539 190.483 166.333 190.483 167.495C190.483 167.82 191.184 170.795 191.714 170.323C192.584 169.549 192.835 166.912 191.859 166.206C188.348 163.669 196.312 168.314 196.312 166.009C196.312 164.497 192.902 163.858 190.694 164.157M188.976 164.868C188.325 163.531 187.896 162.002 188.383 160.764C189.019 159.148 191.135 160.393 191.135 161.766C191.135 162.548 190.998 163.39 190.694 164.157M188.976 164.868C189.235 164.502 189.883 164.266 190.694 164.157M188.976 164.868C188.897 164.979 188.854 165.103 188.854 165.239" stroke="white" stroke-width="3" stroke-linecap="round"/>
<path id="details" d="M136 64.1205C133.003 64.1205 130.256 63.6489 127.323 63M124.923 67.2952C125.445 68.489 125.951 69.7432 127.159 70.3869C129.226 71.4884 131.017 70.5577 133.046 69.9096M125.662 69.5361C124.96 69.5361 124.565 69.8833 124 70.2831M127.508 71.0301C127.195 71.382 127.194 71.6992 127.138 72.1506M130.092 71.5904C130.382 71.9765 130.627 72.0918 131.015 72.3373M129.538 94C128.426 93.4374 127.691 92.6928 126.4 92.6928" stroke="white" stroke-linecap="round"/>
<path id="ear" d="M100.932 63.4104C100.56 63.0342 100.451 62.4277 100.012 62.0783C99.6664 61.8029 99.2272 61.5674 98.9207 61.257C98.1755 60.502 97.0396 61.6116 96.4757 62.0136C94.3057 63.5605 93.0623 66.0904 93.0029 68.7392C92.9289 72.0395 94.2666 75.7154 96.5396 78.1033C96.9751 78.5609 97.2268 79.2545 97.7142 79.6424C98.2127 80.0392 98.7431 80.3704 99.2591 80.703C99.8781 81.102 100.584 81.0784 101.276 80.7547C101.532 80.6354 102.917 79.888 103 80.0563M100.127 66.0878C99.2574 65.6471 98.3936 64.8073 97.3631 64.8073C95.6869 64.8073 95.2474 67.1275 95.1926 68.487C95.1704 69.0387 94.9401 70.4021 95.2117 70.925C95.3793 71.2475 96.7411 70.6275 96.9673 70.5758C97.9161 70.3588 99.8973 70.1678 100.185 71.3906C100.542 72.9127 98.7097 74.714 97.6887 72.9556C97.2378 72.1792 96.8974 73.2797 97.1396 73.7705C97.9278 75.3672 101.047 74.9926 102.311 74.3525M96.68 66.2041C96.6412 66.226 96.6028 66.252 96.5651 66.2819M96.5651 66.2819C96.5121 66.3238 96.4601 66.3732 96.4094 66.4292M96.5651 66.2819C96.6014 65.8756 96.5848 65.6903 96.4094 66.4292M96.5651 66.2819C96.5346 66.6224 96.4671 67.1182 96.4247 67.3553C96.3182 67.9504 96.153 68.548 96.1118 69.1531C96.1054 69.2477 96.0977 69.3483 96.0969 69.4095M96.4094 66.4292C96.321 66.5266 96.2361 66.6439 96.1549 66.7759M96.4094 66.4292C96.402 66.4603 96.3943 66.4931 96.3864 66.5275C96.2496 67.1193 96.0184 67.7309 95.8134 68.3426M96.1549 66.7759C96.1367 66.8056 96.1186 66.836 96.1007 66.8672M96.1549 66.7759C96.2223 66.4829 96.195 66.5934 96.1007 66.8672M96.1549 66.7759C96.1303 66.8831 96.093 67.0442 96.0416 67.2712C95.9843 67.5246 95.901 67.9229 95.8134 68.3426M96.1007 66.8672C95.3028 68.2571 94.893 71.017 95.1926 69.955C95.4298 69.114 95.532 68.2677 95.8756 67.4587C95.9695 67.2379 96.0463 67.0253 96.1007 66.8672ZM95.8134 68.3426C95.5927 69.4002 95.3446 70.5931 95.416 69.942C95.4735 69.4177 95.6333 68.8801 95.8134 68.3426ZM96.0969 69.4095C96.096 69.4797 96.1041 69.4979 96.1338 69.3949M96.0969 69.4095C96.1097 69.4046 96.1221 69.3998 96.1338 69.3949M96.0969 69.4095C95.882 69.4904 95.5283 69.573 95.7863 69.7868C95.8729 69.8586 96.2887 70.0548 96.3417 69.9744C96.5995 69.5826 96.4814 69.9449 96.68 70.0455M96.1338 69.3949C96.1433 69.362 96.155 69.3166 96.1693 69.2565C96.2309 68.9979 96.78 66.3723 96.9098 66.3723C96.9404 66.3723 96.437 68.731 96.3991 68.9009C96.2001 69.7936 96.5868 68.6427 96.68 68.39C96.9222 67.7335 97.2051 67.0881 97.4078 66.4176C97.494 66.1321 97.6687 65.5681 97.5354 66.2235C97.5284 66.258 97.5124 66.3359 97.4897 66.4441M96.1338 69.3949C96.171 69.3795 96.2016 69.3638 96.2204 69.3471C96.3219 69.2564 96.3353 69.8787 96.3353 69.7416C96.3353 69.6861 96.3974 69.5021 96.4451 69.3621M97.4897 66.4441C97.3541 67.0925 96.9823 68.8297 96.9098 68.8297C96.8915 68.8297 97.347 67.0112 97.4897 66.4441ZM97.4897 66.4441C97.5096 66.3651 97.5234 66.3103 97.5291 66.2882C97.6637 65.7579 97.6189 66.0113 97.4333 65.7127C97.1598 65.2726 97.155 65.2868 97.5993 65.4475C97.7739 65.5107 98.1241 65.4453 98.1674 65.6868C98.2657 66.234 98.1353 66.8882 97.944 67.3941C97.7832 67.8194 97.6577 69.1039 97.4908 68.681C97.4899 68.6787 97.489 68.6765 97.4882 68.6742M97.4882 68.6742C97.3364 68.2637 97.8406 67.1911 97.9185 66.7732C98.05 66.0672 97.8183 67.389 97.7716 67.5622C97.6755 67.9192 97.5679 68.2952 97.4882 68.6742ZM97.4882 68.6742C97.418 69.0077 97.3695 69.3434 97.3695 69.6704C97.3695 70.2771 97.2146 69.3712 97.0503 69.2048C96.8932 69.0457 97.1312 68.5766 96.7885 68.9526C96.7568 68.9874 96.517 69.3113 96.4451 69.3621M96.4451 69.3621C96.4141 69.3841 96.4142 69.3553 96.4757 69.2307C96.5226 69.1357 96.4904 69.229 96.4451 69.3621Z" stroke="#9392C8" stroke-linecap="round"/>
</g>
<defs>
<filter id="filter0_d_1_2" x="165.219" y="206.714" width="30.2905" height="25.6217" filterUnits="userSpaceOnUse" color-interpolation-filters="sRGB">
<feFlood flood-opacity="0" result="BackgroundImageFix"/>
<feColorMatrix in="SourceAlpha" type="matrix" values="0 0 0 0 0 0 0 0 0 0 0 0 0 0 0 0 0 0 127 0" result="hardAlpha"/>
<feOffset dy="4"/>
<feGaussianBlur stdDeviation="2"/>
<feComposite in2="hardAlpha" operator="out"/>
<feColorMatrix type="matrix" values="0 0 0 0 0 0 0 0 0 0 0 0 0 0 0 0 0 0 0.25 0"/>
<feBlend mode="normal" in2="BackgroundImageFix" result="effect1_dropShadow_1_2"/>
<feBlend mode="normal" in="SourceGraphic" in2="effect1_dropShadow_1_2" result="shape"/>
</filter>
<filter id="filter1_d_1_2" x="150.966" y="158.331" width="30.7951" height="25.8976" filterUnits="userSpaceOnUse" color-interpolation-filters="sRGB">
<feFlood flood-opacity="0" result="BackgroundImageFix"/>
<feColorMatrix in="SourceAlpha" type="matrix" values="0 0 0 0 0 0 0 0 0 0 0 0 0 0 0 0 0 0 127 0" result="hardAlpha"/>
<feOffset dy="4"/>
<feGaussianBlur stdDeviation="2"/>
<feComposite in2="hardAlpha" operator="out"/>
<feColorMatrix type="matrix" values="0 0 0 0 0 0 0 0 0 0 0 0 0 0 0 0 0 0 0.25 0"/>
<feBlend mode="normal" in2="BackgroundImageFix" result="effect1_dropShadow_1_2"/>
<feBlend mode="normal" in="SourceGraphic" in2="effect1_dropShadow_1_2" result="shape"/>
</filter>
<filter id="filter2_d_1_2" x="156.692" y="194.591" width="34.9254" height="23.7024" filterUnits="userSpaceOnUse" color-interpolation-filters="sRGB">
<feFlood flood-opacity="0" result="BackgroundImageFix"/>
<feColorMatrix in="SourceAlpha" type="matrix" values="0 0 0 0 0 0 0 0 0 0 0 0 0 0 0 0 0 0 127 0" result="hardAlpha"/>
<feOffset dy="4"/>
<feGaussianBlur stdDeviation="2"/>
<feComposite in2="hardAlpha" operator="out"/>
<feColorMatrix type="matrix" values="0 0 0 0 0 0 0 0 0 0 0 0 0 0 0 0 0 0 0.25 0"/>
<feBlend mode="normal" in2="BackgroundImageFix" result="effect1_dropShadow_1_2"/>
<feBlend mode="normal" in="SourceGraphic" in2="effect1_dropShadow_1_2" result="shape"/>
</filter>
<filter id="filter3_d_1_2" x="180.348" y="171.942" width="28.9501" height="24.2792" filterUnits="userSpaceOnUse" color-interpolation-filters="sRGB">
<feFlood flood-opacity="0" result="BackgroundImageFix"/>
<feColorMatrix in="SourceAlpha" type="matrix" values="0 0 0 0 0 0 0 0 0 0 0 0 0 0 0 0 0 0 127 0" result="hardAlpha"/>
<feOffset dy="4"/>
<feGaussianBlur stdDeviation="2"/>
<feComposite in2="hardAlpha" operator="out"/>
<feColorMatrix type="matrix" values="0 0 0 0 0 0 0 0 0 0 0 0 0 0 0 0 0 0 0.25 0"/>
<feBlend mode="normal" in2="BackgroundImageFix" result="effect1_dropShadow_1_2"/>
<feBlend mode="normal" in="SourceGraphic" in2="effect1_dropShadow_1_2" result="shape"/>
</filter>
<filter id="filter4_d_1_2" x="129.766" y="186.252" width="28.3869" height="24.9232" filterUnits="userSpaceOnUse" color-interpolation-filters="sRGB">
<feFlood flood-opacity="0" result="BackgroundImageFix"/>
<feColorMatrix in="SourceAlpha" type="matrix" values="0 0 0 0 0 0 0 0 0 0 0 0 0 0 0 0 0 0 127 0" result="hardAlpha"/>
<feOffset dy="4"/>
<feGaussianBlur stdDeviation="2"/>
<feComposite in2="hardAlpha" operator="out"/>
<feColorMatrix type="matrix" values="0 0 0 0 0 0 0 0 0 0 0 0 0 0 0 0 0 0 0.25 0"/>
<feBlend mode="normal" in2="BackgroundImageFix" result="effect1_dropShadow_1_2"/>
<feBlend mode="normal" in="SourceGraphic" in2="effect1_dropShadow_1_2" result="shape"/>
</filter>
<filter id="filter5_d_1_2" x="138.486" y="205.116" width="28.4" height="22.9974" filterUnits="userSpaceOnUse" color-interpolation-filters="sRGB">
<feFlood flood-opacity="0" result="BackgroundImageFix"/>
<feColorMatrix in="SourceAlpha" type="matrix" values="0 0 0 0 0 0 0 0 0 0 0 0 0 0 0 0 0 0 127 0" result="hardAlpha"/>
<feOffset dy="4"/>
<feGaussianBlur stdDeviation="2"/>
<feComposite in2="hardAlpha" operator="out"/>
<feColorMatrix type="matrix" values="0 0 0 0 0 0 0 0 0 0 0 0 0 0 0 0 0 0 0.25 0"/>
<feBlend mode="normal" in2="BackgroundImageFix" result="effect1_dropShadow_1_2"/>
<feBlend mode="normal" in="SourceGraphic" in2="effect1_dropShadow_1_2" result="shape"/>
</filter>
<linearGradient id="paint0_linear_1_2" x1="202.453" y1="371.456" x2="283.519" y2="517.859" gradientUnits="userSpaceOnUse">
<stop stop-color="#3E6291"/>
<stop offset="1" stop-color="#3E6291" stop-opacity="0"/>
</linearGradient>
<linearGradient id="paint1_linear_1_2" x1="119.5" y1="39" x2="119.5" y2="561" gradientUnits="userSpaceOnUse">
<stop stop-color="#DBD0F3"/>
<stop offset="0.416747" stop-color="#8E7AB7"/>
<stop offset="1" stop-color="#71648C"/>
</linearGradient>
<linearGradient id="paint2_linear_1_2" x1="135.958" y1="100.687" x2="138.183" y2="143" gradientUnits="userSpaceOnUse">
<stop stop-color="#7178B4"/>
<stop offset="1" stop-color="#ACB5FF" stop-opacity="0.62"/>
</linearGradient>
<linearGradient id="paint3_linear_1_2" x1="202" y1="122" x2="202" y2="501" gradientUnits="userSpaceOnUse">
<stop stop-color="#6A9FE5"/>
<stop offset="1" stop-color="#BDC3FF"/>
</linearGradient>
<linearGradient id="paint4_linear_1_2" x1="154" y1="173" x2="154" y2="246" gradientUnits="userSpaceOnUse">
<stop stop-color="#CDC0E8"/>
<stop offset="1" stop-color="#8B7CAA"/>
</linearGradient>
</defs>
</svg>
