<svg width="380" height="550" viewBox="0 0 380 550" fill="none" xmlns="http://www.w3.org/2000/svg">
<g id="mermaid-legs">

<style>

* {
    transform-origin: center 15%;
}

#mermaid-legs{
    animation: mermaid-float 3s ease-in-out 0s infinite normal none;
}

@keyframes mermaid-float{
    0% {
        transform:  translate(0px, 0px);
    }
    50% {
        transform:  translate(0px, 20px);
    }
    100% {
        transform:  translate(0px, 0px);
    }
}

#back-hair{
    animation: hair-move 4s ease-in-out 0s infinite normal none;

}


@keyframes hair-move{
    0% {
        transform:  scale(1);
    }
    50% {
        transform:  scale(1, 1.01) skew(-8deg, 6deg);
    }
    100% {
        transform:  scale(1);
    }
}

#front-hair{
    animation: hair-move-2 4s ease-in-out 0s infinite normal none;

}

@keyframes hair-move-2{
    0% {
        transform:  scale(1);
    }
    50% {
        transform:  scale(1, 1.01) skew(-3deg, 6deg);
    }
    100% {
        transform:  scale(1);
    }
}


</style>

<path id="back-hair" d="M207.444 68.6363C203.979 42.8511 190.737 39.7106 184.55 41.3635C172.175 41.3635 168.462 56.8594 162.894 70.4958C165.369 89.7107 148.662 112.025 140 120.083C156.087 116.364 156.706 108.306 162.894 103.967C154.231 115.744 165.988 124.421 171.556 128.14C164.131 117.603 177.744 112.025 181.456 108.306C187.644 110.165 181.456 126.901 184.55 130C188.262 126.901 191.356 119.463 195.069 112.025C198.781 125.041 192.594 124.421 191.356 130C209.3 130 205.587 114.504 207.444 112.025C211.156 121.322 227.244 118.843 230.337 116.983C226.006 116.364 220.438 112.025 217.344 108.306C233.431 110.785 233.431 103.967 239 96.5289C221.056 115.744 211.775 80.4132 207.444 68.6363Z" fill="url(#paint0_linear_1_2)"/>
<path id="dress-back" d="M128.034 354.345C115.641 323.679 67.5142 317.249 45 317.868L59.8718 293.137C122.664 273.147 251.594 229.333 264.979 214C313.312 228.22 328.803 251.096 335 262.224C283.444 242.935 280.057 277.681 284.808 297.465C287.906 316.425 282.081 360.033 233.996 382.785C162.115 423.59 152.821 387.731 128.034 354.345Z" fill="url(#paint1_linear_1_2)"/>
<path id="body" d="M167.719 84.7914C165.244 81.322 166.687 69.7161 167.719 64.3469L172.669 51.3367L183.806 47L204.225 64.3469L206.7 77.9766C204.225 82.1068 198.904 91.3584 197.419 95.3234C195.562 113.29 196.181 109.573 204.225 110.812C212.887 110.812 214.434 113.909 216.6 117.007C220.931 123.202 233.306 165.95 234.544 169.667C236.4 169.667 245.062 177.102 247.537 179.58C250.631 182.677 256.819 184.536 259.294 185.775C262.264 186.766 271.669 198.992 276 204.98L273.525 206.839V204.98L269.812 201.263L271.669 208.078L265.481 213.034V209.937L262.387 206.839L263.625 209.937V213.034L260.531 216.132V211.176L258.056 206.839V211.176L256.819 216.132L255.581 211.176V204.98L251.25 193.209L240.112 188.253C237.019 187.014 228.356 181.438 228.356 178.96C228.356 176.482 221.55 165.95 219.075 162.233L206.7 128.778V136.212L209.794 149.842L204.225 154.179L206.7 182.677L219.694 294.812L189.375 355.527C189.169 365.233 188.632 385.884 188.137 390.84C185.167 403.23 163.8 450.108 153.487 471.998V486.867C150.188 490.791 143.092 500.001 141.112 505.453C133.687 519.702 121.312 514.127 116.981 512.887C112.65 506.073 134.306 484.389 136.781 479.433C142.35 474.477 164.625 400.133 165.862 395.177C168.337 392.079 170.812 362.961 170.812 353.048C173.287 348.588 180.919 309.062 184.425 289.856L170.812 285.52L167.719 301.008C165.862 314.224 161.779 341.649 160.294 345.614C157.2 348.712 142.35 383.405 141.112 390.84C138.637 395.796 136.781 423.055 135.544 426.153C134.059 431.109 134.1 455.065 134.306 466.423L127.5 468.901C125.438 467.249 120.817 463.325 118.837 460.847C116.362 455.891 120.694 433.587 121.312 426.153C127.5 419.958 126.262 364.82 127.5 358.624C131.46 348.712 139.875 335.495 143.587 330.126C141.319 314.637 136.286 280.068 134.306 265.695C154.106 260.738 161.531 193.416 162.769 160.374C160.912 162.646 156.952 168.304 155.962 172.765C154.725 178.341 141.731 183.297 136.781 185.775C127.5 187.634 110.794 195.687 107.7 197.546C108.937 202.502 102.131 211.795 98.4187 214.273C92.85 221.088 87.9 220.469 81.7125 218.61C89.6325 213.654 89.1375 205.807 87.9 202.502C84.8062 203.328 78.495 204.485 78 202.502C82.95 201.883 88.5187 198.166 90.9937 196.307C94.7062 195.068 107.7 188.253 112.031 185.775C121.931 175.862 138.844 168.428 146.062 165.95C147.506 163.678 150.765 158.516 152.25 156.037C171.431 114.529 178.856 111.431 183.806 110.812C185.291 101.89 181.95 96.769 180.094 95.3234H172.669C171.431 92.8453 168.709 87.2695 167.719 84.7914Z" fill="#D1D0F4"/>
<path id="front-hair" d="M201.636 67.6058C188.198 61.6341 192.304 53.9208 181.728 50.1885C177.995 55.5796 163.687 64.8113 163.687 75.0705C163.687 89.3777 161.198 94.9762 150 93.7321C159.954 93.7321 155.073 84.4013 155.599 77.5587C159.332 29.0385 181.106 35.2591 190.438 35.2591C213.456 35.2591 215.323 73.2043 213.456 83.1572C211.511 93.533 199.148 99.9526 190.438 97.4644C207.235 99.9526 205.369 81.291 201.636 67.6058Z" fill="url(#paint2_linear_1_2)"/>
<path id="dress" d="M209.881 110.984C195.964 127.893 204.496 140.409 211.745 145.797L206.774 155.122C207.603 160.095 208.39 158.479 209.881 169.42C214.032 199.881 245.915 210.449 255.855 204.854C257.098 224.747 257.719 210.242 257.719 214.179L258.34 206.719L260.826 210.449V216.044L263.932 212.936V209.827L262.689 206.719L265.796 209.827V212.936L268.902 210.449L272.009 207.962C325.438 238.424 332.272 254.587 336 263.911C323.574 240.04 284.02 222.053 265.796 216.044C254.199 246.298 229.762 307.427 218.579 321.104C207.396 334.78 165.149 316.752 122.902 304.319C90.0987 297.356 56.6326 311.364 44 319.239C46.4851 307.22 55.68 279.826 72.5787 266.398C97.4298 246.651 140.298 219.152 146.511 213.557C157.072 196.773 158.315 136.472 159.557 134.607C161.214 132.121 172.604 118.859 177.574 110.984C178.403 111.399 181.923 110.363 184.409 110.363C180.432 111.357 175.711 118.237 173.847 123.417C179.024 123.832 185.651 124.661 193.106 124.661C198.698 120.309 196.42 115.129 198.698 109.119C199.733 109.327 205.408 108 209.881 110.984Z" fill="url(#paint3_linear_1_2)"/>
<path id="eyes" d="M184.562 68.6923C187.242 69.9634 189.888 69.9095 192.934 69.8475L193 69.8461M174.377 68C173.538 68.2939 172.703 68.6102 171.815 68.8013C170.414 69.1027 168.969 68.9483 167.539 68.9231M190.672 70.3077C191.2 70.7512 191.497 70.8581 192.273 71M166.873 69.4763C166.575 69.5025 166.221 69.9028 166 70.0532M168.479 69.4763C168.504 69.6694 168.629 69.7887 168.77 69.9378M170.958 69.4763C170.958 69.6554 171.02 69.7718 171.104 69.9378M188.781 70.0769C188.521 70.1027 188.635 70.5108 188.635 70.6538M186.889 69.7308C186.644 69.9496 186.598 70.2576 186.598 70.5385" stroke="white" stroke-linecap="round"/>
<ellipse id="mouth" cx="177" cy="85.5" rx="4" ry="2.5" fill="white"/>
</g>
<defs>
<linearGradient id="paint0_linear_1_2" x1="188.881" y1="90.9504" x2="188.881" y2="149.215" gradientUnits="userSpaceOnUse">
<stop stop-color="#7776A8"/>
<stop offset="1" stop-color="#7776A8" stop-opacity="0"/>
</linearGradient>
<linearGradient id="paint1_linear_1_2" x1="158.397" y1="297.465" x2="196.659" y2="416.221" gradientUnits="userSpaceOnUse">
<stop stop-color="#ADADDC"/>
<stop offset="1" stop-color="#EDEDFF" stop-opacity="0"/>
</linearGradient>
<linearGradient id="paint2_linear_1_2" x1="186.705" y1="45.2119" x2="179.241" y2="94.3544" gradientUnits="userSpaceOnUse">
<stop stop-color="#A6A5DD"/>
<stop offset="0.753661" stop-color="#ADACD7"/>
<stop offset="1" stop-color="#E2E1FF" stop-opacity="0.7"/>
</linearGradient>
<linearGradient id="paint3_linear_1_2" x1="190" y1="109" x2="184.402" y2="395.08" gradientUnits="userSpaceOnUse">
<stop stop-color="white"/>
<stop offset="1" stop-color="#B4B3FF"/>
</linearGradient>
</defs>
</svg>
