<svg width="450" height="450" viewBox="0 0 450 450" fill="none" xmlns="http://www.w3.org/2000/svg">
<g id="rock-mermaid">
<path id="back-hair" d="M220.536 74.229C240.956 63.2823 259.353 66.8326 268 71.4554L245.923 81.9953L230.47 108.623L233.23 148.563L240.956 175.745L203.978 219.57C197.355 229 179.804 226.337 167 229C201.219 209.03 190.732 191.278 190.732 164.096C192.94 98.6374 212.257 78.6669 220.536 74.229Z" fill="#6A71AD"/>
<path id="body" d="M207.971 315.286C195.539 277.411 192.432 292.181 202.976 277.968C216.199 260.144 262.501 249.747 284 246.777L270.681 180.495L284 171.026L270.681 161C265.131 162.3 252.589 164.676 246.818 163.785C241.046 162.894 208.156 205.002 192.432 226.168C187.622 229.51 176.347 237.594 160.799 238.422C87.5442 242.321 90.874 272.955 77 310.273C113.072 327.911 220.402 353.162 207.971 315.286Z" fill="url(#paint0_linear_1_2)"/>
<path id="face" d="M281.842 126.741C281.842 118.337 283.132 101.343 281.842 91.4458L243 77C238.579 87.4578 229.295 115.545 227.526 144.229C231.505 159.019 270.605 168.572 287.921 171C287.737 166.331 287.479 155.986 287.921 151.952C292.784 148.814 294 138.693 294 134.024C291.421 132.717 285.379 129.43 281.842 126.741Z" fill="#DBD0F3"/>
<path id="right-arm" d="M251.17 242.537H285.844C295.017 237.378 318.015 238.599 296 258.5C268.481 283.376 237.411 271.282 230.256 271.835C223.101 268.518 226.403 267.965 222 215.45C226.953 148.562 241.263 162.382 254.472 161.829C263.719 164.04 256.124 216.556 251.17 242.537Z" fill="#BBAED9"/>
<path id="front-hair" d="M229.798 124.5C240.895 111.644 254 115.271 254 89.3709C264 93 279.587 99.3451 286.393 99.3451C304 99.3451 313.568 97.3942 323 78C312.458 92.9612 297.49 78.8427 289.167 74.4097C262.534 60.2242 257.541 69.9768 249.773 74.4097C245.889 76.6262 235.465 74.4097 229.798 89.3709C189.294 196.316 256.986 159.744 266.973 155.865C227.579 153.649 237.011 131.704 229.798 124.5Z" fill="#7C83C2"/>
<path id="smile" d="M288.105 150.972C288.045 150.733 285.665 151.216 285.263 151.327C284.149 151.637 282.527 151.58 281.526 150.972C280.656 150.444 280.615 150.721 280.882 151.683C281.346 153.353 283.095 153.689 284.658 153.564C286.112 153.448 286.843 152.44 287.92 151.683C289.298 150.713 288.104 151.556 287.249 151.683C285.417 151.954 282.536 152.86 281.474 150.735" stroke="white" stroke-width="2" stroke-linecap="round"/>
<path id="left-arm" d="M281.283 156.66L287.5 159C284.894 160.665 285.75 162.099 281.283 163.875C267.883 165.54 269.558 171.645 269 176.64C272.908 269.88 294.683 259.89 305.292 261C315.9 254.34 306.346 234.943 300 226C290.775 213 284.261 188.85 281.283 176.64L305.292 156.66L293.5 150H284.633L281.283 156.66Z" fill="#CFBFF1"/>
<path id="rock" d="M239.413 261.886C180.5 272.172 179.06 310.147 185.704 327.848C249.933 366.978 360.671 339.028 395 327.848C355.688 240.085 298.658 256.296 239.413 261.886Z" fill="#282A3D"/>
<path id="water" d="M159.444 294.315C88.4111 290.977 25.721 314.62 20 343.956C55.5556 300.45 156.984 338.881 191.31 357.69C348.321 443.719 446.214 281.548 427.78 297.37C252.222 385.789 224.444 297.37 159.444 294.315Z" fill="#4550B1"/>
<path id="eye" d="M272.948 118.292C272.768 118.314 272.591 118.48 272.429 118.742M272.429 118.742C271.571 120.132 271.15 124.249 273.054 124.212C275.486 124.165 275.289 119.262 273.896 118.068C273.288 117.547 272.788 117.993 272.429 118.742ZM272.429 118.742C271.947 119.748 271.717 121.302 271.817 121.791C271.851 121.958 271.915 122.109 272.001 122.232M272.001 122.232C272.142 122.432 272.342 122.561 272.575 122.569M272.001 122.232C272.001 121.197 272.006 120.134 272.37 119.147C272.527 118.718 272.904 118.715 273.157 118.949M272.001 122.232C272.001 122.246 272.001 122.259 272.001 122.272V122.291C272.001 123.602 272.902 123.972 273.185 122.555M272.575 122.569C272.724 122.574 272.886 122.53 273.054 122.423C273.17 122.349 273.265 122.257 273.343 122.151M272.575 122.569C272.509 122.416 272.475 122.213 272.475 122.041C272.475 121.266 272.383 119.672 273.001 119.055C273.057 118.999 273.109 118.966 273.157 118.949M272.575 122.569C272.69 122.837 272.899 122.956 273.185 122.502C273.247 122.404 273.299 122.286 273.343 122.151M273.343 122.151C273.802 121.527 273.659 120.425 273.659 119.752C273.659 119.551 273.49 118.838 273.157 118.949M273.343 122.151C273.611 121.333 273.571 119.94 273.369 119.292C273.326 119.152 273.25 119.035 273.157 118.949M273.185 119.002C271.601 120.586 270.432 120.867 268.212 120.423M276.027 109.767C274.424 108.913 272.875 108.069 271.001 108.504C267.483 109.319 265.163 112.579 262.765 114.976" stroke="white" stroke-width="2" stroke-linecap="round"/>
<path id="ear" d="M225.156 122.44C227.656 117.94 231.156 117.94 233.656 121.94C232.456 121.94 233.99 129.274 233.656 130.94L235.156 134.44C233.823 135.44 231.156 141.44 228.156 136.94C225.656 134.94 222.156 128.94 225.156 122.44Z" fill="#DBD0F3"/>
<g id="earring">
<circle id="Ellipse 1" cx="232.156" cy="138.44" r="3.5" fill="url(#paint1_radial_1_2)"/>
<circle id="Ellipse 2" cx="233.656" cy="137.94" r="1" fill="white"/>
</g>
</g>
<defs>
<linearGradient id="paint0_linear_1_2" x1="271.791" y1="207.787" x2="110.958" y2="334.21" gradientUnits="userSpaceOnUse">
<stop stop-color="#9D92B6"/>
<stop offset="1" stop-color="#58B0D6"/>
</linearGradient>
<radialGradient id="paint1_radial_1_2" cx="0" cy="0" r="1" gradientUnits="userSpaceOnUse" gradientTransform="translate(232.156 138.44) rotate(90) scale(2.33333)">
<stop stop-color="#5EECFF"/>
<stop offset="1" stop-color="#E8FCFF"/>
</radialGradient>
</defs>
</svg>
