<svg width="400" height="400" viewBox="0 0 400 400" fill="none" xmlns="http://www.w3.org/2000/svg">
<g id="ship">

<style>
* {
    transform-origin: center 15%;
}

#ship{
    animation: float 3s ease-in-out 0s infinite normal none;
}

@keyframes float{
    0% {
        transform:  translate(0px, 0px);
    }
    50% {
        transform:  translate(0px, 5px);
    }
    100% {
        transform:  translate(0px, 0px);
    }
}
</style>

<g id="back-ship">
<path id="Vector 14" d="M209.5 285.5C209.5 318.3 195.5 327.833 188.5 328.5H237.5C248.333 311.5 271.6 276.2 278 271C259.5 269.5 228.5 281.5 209.5 285.5Z" fill="#2D1507"/>
<path id="Vector 15" d="M209.5 284C211.1 307.2 201.833 320.333 197 324C197 325 198.3 327.2 203.5 328C214 324.5 215.5 299 216.5 291C260.9 279.4 269.667 284.167 268.5 288C270.167 284.167 276.8 276.2 280 271C268.5 268.5 218.5 282 209.5 284Z" fill="#362014"/>
</g>
<path id="h-mast-1" d="M124.5 179H279.5V184H124.5V179Z" fill="#4D2D1B"/>
<path id="v-mast-main" d="M187.5 331.5L190.5 16.5H194L203 331.5H187.5Z" fill="#4D2D1B"/>
<g id="h-mast-2-3">
<path d="M205 130.5L73 140V144L205 134V130.5Z" fill="#4D2D1B"/>
<path d="M262 85.5H133V89.5H262V85.5Z" fill="#4D2D1B"/>
</g>
<path id="sail-1" d="M258.964 87C204.042 102.122 155.902 93.3007 138.697 87C104.622 124.293 117.651 166.696 122.662 177.935C185.301 159.033 254.956 175.891 275 181C242.929 119.696 256.459 96.7065 258.964 87Z" fill="#94866C"/>
<path id="dia-mast" d="M333 159.5L330 155L144 274L148 280L333 159.5Z" fill="#4D2D1B"/>
<path id="dia-sail" d="M262.331 282C249.899 264.64 188.644 254.789 159.57 252.033C156.897 243.939 162.277 227.337 205.186 225.683C252.758 223.85 297.964 183.405 321.218 164.19C323.758 161.801 326.354 159.718 329 158C326.79 159.636 324.182 161.74 321.218 164.19C288.619 194.835 265.121 275.769 262.331 282Z" fill="#786D57"/>
<path id="sail-3" d="M133.669 180C162.133 197.049 240.41 188.49 275.991 182.079C264.465 208.068 277.995 262.124 280 272C256.447 263.164 133.669 260.045 122.644 262.124C111.619 239.254 128.657 205.989 133.669 180Z" fill="#94866C"/>
<path id="v-mast-2" d="M140.5 272L133 103.5H135.5L146 272H140.5Z" fill="#4D2D1B"/>
<path id="sail-2" d="M202.993 133C151.331 149.143 99.036 146.452 79.346 143.089C37.296 214.723 72.3377 237.424 79.346 243.478C105.878 204.129 180.967 235.911 209 246C173.458 226.326 197.486 143.089 202.993 133Z" fill="#BAA988"/>
<g id="main">
<path id="h-mast-4" d="M257 280V274H137V280H257Z" fill="#633B24"/>
<path id="body" d="M114.5 247.5L96.5 263.5C96.5 266.988 96.6587 270.494 96.9562 274C100.241 312.703 120.455 351.412 131 367L147.5 371L253.5 367L262 333L273 326.5C278.5 311.5 281.7 279.5 278.5 271.5C273.7 279.9 242.333 287.5 231.5 289C232.5 300 229.2 322 208 322C186.8 322 181.833 286.333 182 268.5L114.5 247.5Z" fill="#361A0A"/>
<path id="outline" d="M116 259.5C107.2 270.3 100 274 97.5 274.5C96.6667 271 94.9 263.1 94.5 259.5C100.5 259.5 111.5 248.5 116 245C134.5 257 174.5 263 182 267.5C182 286.5 188.808 321 207.5 320.5C226.192 320 231 296 231.5 288.5C250.7 286.9 274.167 274.5 279.5 270.5V282.5C276.3 287.7 247.5 294 237.5 296C237.167 306.667 230.7 328.1 207.5 328.5C178.5 329 173.5 287 171 274.5C129 269.5 127.5 262.5 116 259.5Z" fill="#4D2D1B"/>
<g id="details">
<path id="Vector 3" d="M116.5 259C113.167 285.667 114.7 345.3 147.5 370.5" stroke="#4D2D1B" stroke-width="3"/>
<path id="Vector 4" d="M100.19 289.698C103.713 289.698 106.802 288.39 109.974 286.98C112.084 286.043 114.364 285.623 116.235 284.219" stroke="#4D2D1B" stroke-width="3" stroke-linecap="round"/>
<path id="Vector 5" d="M116.627 286.176C118.004 286.426 119.392 287.506 120.627 288.133C123.305 289.492 126.628 289.52 129.52 290.285C132.93 291.188 136.337 292.754 139.717 293.829C144.968 295.5 150.438 296.133 155.763 297.612C160.238 298.855 165.359 300.265 170.047 300.265C172.299 300.265 174.501 301.048 176.809 301.048C177.97 301.048 180.413 301.033 180.809 302.222" stroke="#4D2D1B" stroke-width="3" stroke-linecap="round"/>
<path id="Vector 6" d="M233.251 306.918C238.72 306.918 244.226 307.049 249.667 306.505C251.897 306.282 254.068 305.485 256.255 305.048C257.785 304.742 259.616 304.984 261.06 304.352C263.429 303.316 265.973 302.454 268.387 301.526C269.18 301.221 273.282 299.007 271.605 300.265" stroke="#4D2D1B" stroke-width="3" stroke-linecap="round"/>
<path id="Vector 7" d="M102.146 307.309C102.808 309.073 108.398 308.483 109.756 308.483C110.828 308.483 115.322 305.873 115.844 306.918" stroke="#4D2D1B" stroke-width="3" stroke-linecap="round"/>
<path id="Vector 8" d="M117.801 307.309C122.023 311.148 128.356 313.272 133.586 315.332C138.334 317.203 142.976 318.601 147.935 319.746C151.434 320.553 155.293 321.398 158.893 321.398C162.968 321.398 166.973 322.463 171.025 322.572C175.407 322.691 179.628 323.355 184.027 323.355C186.922 323.355 190.819 322.63 193.333 324.138" stroke="#4D2D1B" stroke-width="3" stroke-linecap="round"/>
<path id="Vector 9" d="M217.988 324.529C221.477 324.529 224.805 323.823 228.251 323.746C230.95 323.686 233.977 323.462 236.6 322.985C240.965 322.192 245.465 322.04 249.775 320.702C254.061 319.373 258.768 317.915 263.169 317.115C264.309 316.908 273.953 313.939 273.953 313.962" stroke="#4D2D1B" stroke-width="3" stroke-linecap="round"/>
<path id="Vector 10" d="M120.932 325.703C121.898 327.528 124.716 328.253 126.606 328.834C128.966 329.56 131.039 330.812 133.151 332.052C139.82 335.966 147.175 338.089 154.588 339.792C164.294 342.022 174.62 342.111 184.506 343.01C193.055 343.787 201.727 344.488 210.314 344.488C218.276 344.488 226.473 344.2 234.404 343.488C237.378 343.221 240.726 342.966 243.601 342.227C245.95 341.623 248.078 340.385 250.449 339.792C253.104 339.128 255.101 338.203 257.494 336.857C259.614 335.664 261.643 333.815 263.777 332.748" stroke="#4D2D1B" stroke-width="3" stroke-linecap="round"/>
<path id="Vector 11" d="M131.107 350.75C132.359 350.889 133.759 352.869 134.89 353.49C137.956 355.171 141.712 356.31 145.022 357.403C152.722 359.946 160.063 361.676 168.069 362.578C183.517 364.318 199.364 362.695 214.814 361.73C225.376 361.07 236.027 360.069 246.362 357.773C250.427 356.869 253.695 353.982 257.124 351.924" stroke="#4D2D1B" stroke-width="3" stroke-linecap="round"/>
<path id="Vector 12" d="M122.106 326.877C121.01 327.851 117.502 328.834 116.04 328.834C115.141 328.834 110.848 328.626 111.148 329.225" stroke="#4D2D1B" stroke-width="3" stroke-linecap="round"/>
<path id="Vector 13" d="M133.846 351.924C130.452 351.924 120.277 352.316 123.671 352.316" stroke="#4D2D1B" stroke-width="3" stroke-linecap="round"/>
</g>
</g>
<g id="royal-flag">
<path id="flagpole" d="M295 238L290.5 235.5L265 290.5L295 238Z" fill="#4D2D1B"/>
<path id="flag" d="M280 263C292.232 259.8 292.572 245.667 291.213 239C317.716 239 330.458 251.5 343.2 253.5C347.278 279.5 334.536 274 332.497 279C314.149 262 288.665 266 280 263Z" fill="#D9D9D9"/>
<path id="crown" d="M323.5 268.5C319.5 264.1 308.833 262 304 261.5L308 248.5L312 255.5L319.5 248.5V258L327.5 252.5C327 255.667 324.7 264.5 323.5 268.5Z" fill="#FFF175"/>
</g>
<g id="prince-ship">
<path id="prince" d="M150 208C145.6 208 147.167 212.333 148.5 214.5C147 214 142 216.5 141 217C139.8 217.4 131.167 216.833 127 216.5L129 217L131 218C134.833 219 142.9 220.9 144.5 220.5C145.7 220.9 143 227 141.5 230L132 233V250.5L129.5 251L129 252.5L134.5 252L136 235.5L146 236.5L149 258L151.5 258.5L154 234.5H155.5V221.5L161.5 223L165.5 214L165 212.5L163.5 214C162.833 215.167 161.3 217.7 160.5 218.5C159.7 217.7 154.167 215.5 151.5 214.5C152.833 212.333 154.4 208 150 208Z" fill="#3B3B3B"/>
<path id="prince-crown" d="M150.854 208.642C150.257 208.221 149.037 208.307 148.501 208.402L148.427 206.639L149.124 207.387L149.656 206.262L150.022 207.455L150.665 206.502C150.733 206.916 150.828 208.1 150.854 208.642Z" fill="#FFF175"/>
</g>
</g>
</svg>
